<?xml version="1.0" encoding="UTF-8" standalone="no"?>
<!DOCTYPE svg PUBLIC "-//W3C//DTD SVG 1.1//EN"
 "http://www.w3.org/Graphics/SVG/1.1/DTD/svg11.dtd">
<!-- Generated by graphviz version 8.0.5 (20230508.1809)
 -->
<!-- Title: G Pages: 1 -->
<svg width="699pt" height="260pt"
 viewBox="0.00 0.00 698.50 260.00" xmlns="http://www.w3.org/2000/svg" xmlns:xlink="http://www.w3.org/1999/xlink">
<g id="graph0" class="graph" transform="scale(1 1) rotate(0) translate(4 256)">
<title>G</title>
<g id="a_graph0"><a xlink:title="Build target = fg0.png">
<polygon fill="white" stroke="none" points="-4,4 -4,-256 694.5,-256 694.5,4 -4,4"/>
</a>
</g>
<!-- n52 -->
<g id="node1" class="node">
<title>n52</title>
<g id="a_node1"><a xlink:title="./dither.exe t_gray_fg0.png fg0.png">
<polygon fill="white" stroke="#f6ac2d" stroke-width="3" points="58,-90 0,-90 0,-54 58,-54 58,-90"/>
<text text-anchor="middle" x="29" y="-66.95" font-family="Times,serif" font-size="14.00">fg0.png</text>
</a>
</g>
</g>
<!-- n85 -->
<g id="node2" class="node">
<title>n85</title>
<g id="a_node2"><a xlink:title="./svg_to_png.sh t_fg0.svg t_gray_fg0.png">
<polygon fill="white" stroke="#151975" points="193.25,-117 94,-117 94,-81 193.25,-81 193.25,-117"/>
<text text-anchor="middle" x="143.62" y="-93.95" font-family="Times,serif" font-size="14.00">t_gray_fg0.png</text>
</a>
</g>
</g>
<!-- n85&#45;&gt;n52 -->
<g id="edge2" class="edge">
<title>n85&#45;&gt;n52</title>
<g id="a_edge2"><a xlink:title="fg0.png : t_gray_fg0.png">
<path fill="none" stroke="#151975" d="M93.68,-85.5C93.68,-85.5 70.32,-85.5 70.32,-85.5"/>
<polygon fill="#151975" stroke="#151975" points="70.32,-82 60.32,-85.5 70.32,-89 70.32,-82"/>
</a>
</g>
</g>
<!-- n126 -->
<g id="node3" class="node">
<title>n126</title>
<g id="a_node3"><a xlink:title="perl add_shifts.pl t_undecorated_fg0.svg 0 | perl add_water.pl &#45; 0 | perl add_blackhole_debris.pl &#45; 0 &gt; t_fg0.svg">
<polygon fill="white" stroke="#bdb2e4" points="310.12,-171 243.12,-171 243.12,-135 310.12,-135 310.12,-171"/>
<text text-anchor="middle" x="276.62" y="-147.95" font-family="Times,serif" font-size="14.00">t_fg0.svg</text>
</a>
</g>
</g>
<!-- n126&#45;&gt;n85 -->
<g id="edge4" class="edge">
<title>n126&#45;&gt;n85</title>
<g id="a_edge4"><a xlink:title="t_gray_fg0.png : t_fg0.svg">
<path fill="none" stroke="#bdb2e4" d="M242.91,-153C203.32,-153 143,-153 143,-153 143,-153 143,-128.28 143,-128.28"/>
<polygon fill="#bdb2e4" stroke="#bdb2e4" points="146.5,-128.28 143,-118.28 139.5,-128.28 146.5,-128.28"/>
</a>
</g>
</g>
<!-- n161 -->
<g id="node4" class="node">
<title>n161</title>
<g id="a_node4"><a xlink:title="add_blackhole_debris.pl&#10;(no actions)">
<polygon fill="white" stroke="#ca4392" points="508.75,-252 360,-252 360,-216 508.75,-216 508.75,-252"/>
<text text-anchor="middle" x="434.38" y="-228.95" font-family="Times,serif" font-size="14.00">add_blackhole_debris.pl</text>
</a>
</g>
</g>
<!-- n161&#45;&gt;n126 -->
<g id="edge8" class="edge">
<title>n161&#45;&gt;n126</title>
<g id="a_edge8"><a xlink:title="t_fg0.svg : add_blackhole_debris.pl">
<path fill="none" stroke="#ca4392" d="M382,-215.62C382,-196.09 382,-168 382,-168 382,-168 321.55,-168 321.55,-168"/>
<polygon fill="#ca4392" stroke="#ca4392" points="321.55,-164.5 311.55,-168 321.55,-171.5 321.55,-164.5"/>
</a>
</g>
</g>
<!-- n160 -->
<g id="node5" class="node">
<title>n160</title>
<g id="a_node5"><a xlink:title="add_water.pl&#10;(no actions)">
<polygon fill="white" stroke="#95c5eb" points="477.25,-198 391.5,-198 391.5,-162 477.25,-162 477.25,-198"/>
<text text-anchor="middle" x="434.38" y="-174.95" font-family="Times,serif" font-size="14.00">add_water.pl</text>
</a>
</g>
</g>
<!-- n160&#45;&gt;n126 -->
<g id="edge7" class="edge">
<title>n160&#45;&gt;n126</title>
<g id="a_edge7"><a xlink:title="t_fg0.svg : add_water.pl">
<path fill="none" stroke="#95c5eb" d="M391.27,-165C391.27,-165 321.43,-165 321.43,-165"/>
<polygon fill="#95c5eb" stroke="#95c5eb" points="321.43,-161.5 311.43,-165 321.43,-168.5 321.43,-161.5"/>
</a>
</g>
</g>
<!-- n159 -->
<g id="node6" class="node">
<title>n159</title>
<g id="a_node6"><a xlink:title="add_shifts.pl&#10;(no actions)">
<polygon fill="white" stroke="#8b3a94" points="477.25,-144 391.5,-144 391.5,-108 477.25,-108 477.25,-144"/>
<text text-anchor="middle" x="434.38" y="-120.95" font-family="Times,serif" font-size="14.00">add_shifts.pl</text>
</a>
</g>
</g>
<!-- n159&#45;&gt;n126 -->
<g id="edge6" class="edge">
<title>n159&#45;&gt;n126</title>
<g id="a_edge6"><a xlink:title="t_fg0.svg : add_shifts.pl">
<path fill="none" stroke="#8b3a94" d="M391.27,-141C391.27,-141 321.43,-141 321.43,-141"/>
<polygon fill="#8b3a94" stroke="#8b3a94" points="321.43,-137.5 311.43,-141 321.43,-144.5 321.43,-137.5"/>
</a>
</g>
</g>
<!-- n158 -->
<g id="node7" class="node">
<title>n158</title>
<g id="a_node7"><a xlink:title="perl select_layers.pl &#39;^FG (common|frame0)&#39; t_gray_fg0.png world_master.svg | perl remove_unused_defs.pl &gt; t_undecorated_fg0.svg">
<polygon fill="white" stroke="#72eda2" points="504.25,-90 364.5,-90 364.5,-54 504.25,-54 504.25,-90"/>
<text text-anchor="middle" x="434.38" y="-66.95" font-family="Times,serif" font-size="14.00">t_undecorated_fg0.svg</text>
</a>
</g>
</g>
<!-- n158&#45;&gt;n126 -->
<g id="edge5" class="edge">
<title>n158&#45;&gt;n126</title>
<g id="a_edge5"><a xlink:title="t_fg0.svg : t_undecorated_fg0.svg">
<path fill="none" stroke="#72eda2" d="M373,-90.38C373,-109.91 373,-138 373,-138 373,-138 321.6,-138 321.6,-138"/>
<polygon fill="#72eda2" stroke="#72eda2" points="321.6,-134.5 311.6,-138 321.6,-141.5 321.6,-134.5"/>
</a>
</g>
</g>
<!-- n60 -->
<g id="node8" class="node">
<title>n60</title>
<g id="a_node8"><a xlink:title="remove_unused_defs.pl&#10;(no actions)">
<polygon fill="white" stroke="#3e3fb6" points="690.5,-144 544.75,-144 544.75,-108 690.5,-108 690.5,-144"/>
<text text-anchor="middle" x="617.62" y="-120.95" font-family="Times,serif" font-size="14.00">remove_unused_defs.pl</text>
</a>
</g>
</g>
<!-- n60&#45;&gt;n158 -->
<g id="edge11" class="edge">
<title>n60&#45;&gt;n158</title>
<g id="a_edge11"><a xlink:title="t_undecorated_fg0.svg : remove_unused_defs.pl">
<path fill="none" stroke="#3e3fb6" d="M553,-107.58C553,-94.04 553,-78 553,-78 553,-78 515.41,-78 515.41,-78"/>
<polygon fill="#3e3fb6" stroke="#3e3fb6" points="515.41,-74.5 505.41,-78 515.41,-81.5 515.41,-74.5"/>
</a>
</g>
</g>
<!-- n59 -->
<g id="node9" class="node">
<title>n59</title>
<g id="a_node9"><a xlink:title="select_layers.pl&#10;(no actions)">
<polygon fill="white" stroke="#a4c629" points="667.62,-90 567.62,-90 567.62,-54 667.62,-54 667.62,-90"/>
<text text-anchor="middle" x="617.62" y="-66.95" font-family="Times,serif" font-size="14.00">select_layers.pl</text>
</a>
</g>
</g>
<!-- n59&#45;&gt;n158 -->
<g id="edge10" class="edge">
<title>n59&#45;&gt;n158</title>
<g id="a_edge10"><a xlink:title="t_undecorated_fg0.svg : select_layers.pl">
<path fill="none" stroke="#a4c629" d="M567.55,-66C567.55,-66 515.65,-66 515.65,-66"/>
<polygon fill="#a4c629" stroke="#a4c629" points="515.65,-62.5 505.65,-66 515.65,-69.5 515.65,-62.5"/>
</a>
</g>
</g>
<!-- n58 -->
<g id="node10" class="node">
<title>n58</title>
<g id="a_node10"><a xlink:title="world_master.svg&#10;(no actions)">
<polygon fill="white" stroke="#c9599a" points="674,-36 561.25,-36 561.25,0 674,0 674,-36"/>
<text text-anchor="middle" x="617.62" y="-12.95" font-family="Times,serif" font-size="14.00">world_master.svg</text>
</a>
</g>
</g>
<!-- n58&#45;&gt;n158 -->
<g id="edge9" class="edge">
<title>n58&#45;&gt;n158</title>
<g id="a_edge9"><a xlink:title="t_undecorated_fg0.svg : world_master.svg">
<path fill="none" stroke="#c9599a" d="M560.78,-31.5C506.85,-31.5 434,-31.5 434,-31.5 434,-31.5 434,-42.65 434,-42.65"/>
<polygon fill="#c9599a" stroke="#c9599a" points="430.5,-42.65 434,-52.65 437.5,-42.65 430.5,-42.65"/>
</a>
</g>
</g>
<!-- n74 -->
<g id="node11" class="node">
<title>n74</title>
<g id="a_node11"><a xlink:title="svg_to_png.sh&#10;(no actions)">
<polygon fill="white" stroke="#f0b2a3" points="324,-117 229.25,-117 229.25,-81 324,-81 324,-117"/>
<text text-anchor="middle" x="276.62" y="-93.95" font-family="Times,serif" font-size="14.00">svg_to_png.sh</text>
</a>
</g>
</g>
<!-- n74&#45;&gt;n85 -->
<g id="edge3" class="edge">
<title>n74&#45;&gt;n85</title>
<g id="a_edge3"><a xlink:title="t_gray_fg0.png : svg_to_png.sh">
<path fill="none" stroke="#f0b2a3" d="M228.98,-99C228.98,-99 204.63,-99 204.63,-99"/>
<polygon fill="#f0b2a3" stroke="#f0b2a3" points="204.63,-95.5 194.63,-99 204.63,-102.5 204.63,-95.5"/>
</a>
</g>
</g>
<!-- n45 -->
<g id="node12" class="node">
<title>n45</title>
<g id="a_node12"><a xlink:title="gcc &#45;march=native &#45;O3 &#45;Wall &#45;Wextra &#45;pedantic dither.c &#45;lpng &#45;o dither.exe">
<polygon fill="white" stroke="#4d1590" points="178.25,-63 109,-63 109,-27 178.25,-27 178.25,-63"/>
<text text-anchor="middle" x="143.62" y="-39.95" font-family="Times,serif" font-size="14.00">dither.exe</text>
</a>
</g>
</g>
<!-- n45&#45;&gt;n52 -->
<g id="edge1" class="edge">
<title>n45&#45;&gt;n52</title>
<g id="a_edge1"><a xlink:title="fg0.png : dither.exe">
<path fill="none" stroke="#4d1590" d="M108.61,-58.5C108.61,-58.5 70.15,-58.5 70.15,-58.5"/>
<polygon fill="#4d1590" stroke="#4d1590" points="70.15,-55 60.15,-58.5 70.15,-62 70.15,-55"/>
</a>
</g>
</g>
<!-- n183 -->
<g id="node13" class="node">
<title>n183</title>
<g id="a_node13"><a xlink:title="dither.c&#10;(no actions)">
<polygon fill="white" stroke="#f6f496" points="304.88,-63 248.38,-63 248.38,-27 304.88,-27 304.88,-63"/>
<text text-anchor="middle" x="276.62" y="-39.95" font-family="Times,serif" font-size="14.00">dither.c</text>
</a>
</g>
</g>
<!-- n183&#45;&gt;n45 -->
<g id="edge12" class="edge">
<title>n183&#45;&gt;n45</title>
<g id="a_edge12"><a xlink:title="dither.exe : dither.c">
<path fill="none" stroke="#f6f496" d="M248.09,-45C248.09,-45 189.74,-45 189.74,-45"/>
<polygon fill="#f6f496" stroke="#f6f496" points="189.74,-41.5 179.74,-45 189.74,-48.5 189.74,-41.5"/>
</a>
</g>
</g>
</g>
</svg>
