<?xml version="1.0" encoding="UTF-8" standalone="no"?>
<!DOCTYPE svg PUBLIC "-//W3C//DTD SVG 1.1//EN"
 "http://www.w3.org/Graphics/SVG/1.1/DTD/svg11.dtd">
<!-- Generated by graphviz version 8.0.5 (20230508.1809)
 -->
<!-- Title: G Pages: 1 -->
<svg width="529pt" height="486pt"
 viewBox="0.00 0.00 529.00 485.50" xmlns="http://www.w3.org/2000/svg" xmlns:xlink="http://www.w3.org/1999/xlink">
<g id="graph0" class="graph" transform="scale(1 1) rotate(0) translate(4 481.5)">
<title>G</title>
<g id="a_graph0"><a xlink:title="Game states">
<polygon fill="white" stroke="none" points="-4,4 -4,-481.5 525,-481.5 525,4 -4,4"/>
</a>
</g>
<g id="clust1" class="cluster">
<title>cluster_0</title>
<g id="a_clust1"><a xlink:title="Game states">
<polygon fill="none" stroke="black" points="165,-249 165,-469.5 513,-469.5 513,-249 165,-249"/>
<text text-anchor="middle" x="197" y="-452.2" font-family="Times,serif" font-size="14.00">main.lua</text>
</a>
</g>
</g>
<g id="clust2" class="cluster">
<title>cluster_1</title>
<g id="a_clust2"><a xlink:title="Game states">
<polygon fill="none" stroke="black" points="25,-164.5 25,-241 360,-241 360,-164.5 25,-164.5"/>
<text text-anchor="middle" x="54" y="-223.7" font-family="Times,serif" font-size="14.00">arm.lua</text>
</a>
</g>
</g>
<g id="clust3" class="cluster">
<title>cluster_2</title>
<g id="a_clust3"><a xlink:title="Game states">
<polygon fill="none" stroke="black" points="8,-8 8,-156.5 348,-156.5 348,-8 8,-8"/>
<text text-anchor="middle" x="41.88" y="-139.2" font-family="Times,serif" font-size="14.00">world.lua</text>
</a>
</g>
</g>
<!-- playdate_update -->
<g id="node1" class="node">
<title>playdate_update</title>
<ellipse fill="none" stroke="green" stroke-width="2" cx="413" cy="-419" rx="69.26" ry="18"/>
<text text-anchor="middle" x="413" y="-413.95" font-family="Times,serif" font-size="14.00">playdate.update</text>
</g>
<!-- main -->
<g id="node2" class="node">
<title>main</title>
<ellipse fill="none" stroke="black" cx="248" cy="-347" rx="74.89" ry="18"/>
<text text-anchor="middle" x="248" y="-341.95" font-family="Times,serif" font-size="14.00">Waiting for input</text>
</g>
<!-- playdate_update&#45;&gt;main -->
<g id="edge5" class="edge">
<title>playdate_update&#45;&gt;main</title>
<path fill="none" stroke="black" d="M377.2,-402.81C352.76,-392.45 320.18,-378.62 293.85,-367.45"/>
<polygon fill="black" stroke="black" points="295.31,-363.84 284.73,-363.16 292.57,-370.29 295.31,-363.84"/>
</g>
<!-- backdoor -->
<g id="node4" class="node">
<title>backdoor</title>
<ellipse fill="none" stroke="black" cx="413" cy="-347" rx="72.34" ry="18"/>
<text text-anchor="middle" x="413" y="-341.95" font-family="Times,serif" font-size="14.00">Debug backdoor</text>
</g>
<!-- playdate_update&#45;&gt;backdoor -->
<g id="edge1" class="edge">
<title>playdate_update&#45;&gt;backdoor</title>
<path fill="none" stroke="black" d="M407.05,-400.34C406.32,-393.07 406.09,-384.47 406.36,-376.36"/>
<polygon fill="black" stroke="black" points="409.91,-376.62 407.07,-366.42 402.93,-376.17 409.91,-376.62"/>
</g>
<!-- items -->
<g id="node3" class="node">
<title>items</title>
<ellipse fill="none" stroke="black" cx="414" cy="-275" rx="48.28" ry="18"/>
<text text-anchor="middle" x="414" y="-269.95" font-family="Times,serif" font-size="14.00">List items</text>
</g>
<!-- main&#45;&gt;items -->
<g id="edge3" class="edge">
<title>main&#45;&gt;items</title>
<path fill="none" stroke="black" d="M284.02,-330.81C310.15,-319.79 345.53,-304.87 372.79,-293.38"/>
<polygon fill="black" stroke="black" points="373.95,-296.27 381.8,-289.16 371.23,-289.82 373.95,-296.27"/>
</g>
<!-- prepare_save_state -->
<g id="node5" class="node">
<title>prepare_save_state</title>
<polygon fill="none" stroke="black" points="304.75,-293 191.25,-293 191.25,-257 304.75,-257 304.75,-293"/>
<text text-anchor="middle" x="248" y="-269.95" font-family="Times,serif" font-size="14.00">Prepare save state</text>
</g>
<!-- main&#45;&gt;prepare_save_state -->
<g id="edge6" class="edge">
<title>main&#45;&gt;prepare_save_state</title>
<path fill="none" stroke="black" d="M248,-328.7C248,-321.24 248,-312.32 248,-303.97"/>
<polygon fill="black" stroke="black" points="251.5,-304.1 248,-294.1 244.5,-304.1 251.5,-304.1"/>
</g>
<!-- items&#45;&gt;playdate_update -->
<g id="edge4" class="edge">
<title>items&#45;&gt;playdate_update</title>
<path fill="none" stroke="black" d="M446.84,-288.61C464.22,-297.17 483.99,-310.36 494,-329 501.57,-343.1 501.61,-350.93 494,-365 486.47,-378.93 473.5,-389.79 460.12,-397.95"/>
<polygon fill="black" stroke="black" points="458.85,-395.21 451.86,-403.17 462.29,-401.31 458.85,-395.21"/>
</g>
<!-- backdoor&#45;&gt;playdate_update -->
<g id="edge2" class="edge">
<title>backdoor&#45;&gt;playdate_update</title>
<path fill="none" stroke="black" d="M418.93,-365.42C419.67,-372.65 419.91,-381.24 419.65,-389.36"/>
<polygon fill="black" stroke="black" points="416.09,-389.13 418.95,-399.34 423.08,-389.58 416.09,-389.13"/>
</g>
<!-- update_joints -->
<g id="node6" class="node">
<title>update_joints</title>
<polygon fill="none" stroke="black" points="237.38,-208.5 148.62,-208.5 148.62,-172.5 237.38,-172.5 237.38,-208.5"/>
<text text-anchor="middle" x="193" y="-185.45" font-family="Times,serif" font-size="14.00">Update joints</text>
</g>
<!-- prepare_save_state&#45;&gt;update_joints -->
<g id="edge7" class="edge">
<title>prepare_save_state&#45;&gt;update_joints</title>
<path fill="none" stroke="red" d="M236.34,-256.5C228.9,-245.35 219.12,-230.67 210.73,-218.09"/>
<polygon fill="red" stroke="red" points="213.11,-216.35 204.65,-209.97 207.28,-220.23 213.11,-216.35"/>
</g>
<!-- execute_action -->
<g id="node7" class="node">
<title>execute_action</title>
<polygon fill="none" stroke="black" points="352.12,-208.5 255.88,-208.5 255.88,-172.5 352.12,-172.5 352.12,-208.5"/>
<text text-anchor="middle" x="304" y="-185.45" font-family="Times,serif" font-size="14.00">Execute action</text>
</g>
<!-- prepare_save_state&#45;&gt;execute_action -->
<g id="edge8" class="edge">
<title>prepare_save_state&#45;&gt;execute_action</title>
<path fill="none" stroke="red" d="M259.88,-256.5C267.52,-245.24 277.6,-230.39 286.2,-217.72"/>
<polygon fill="red" stroke="red" points="289.42,-220.21 292.14,-209.97 283.63,-216.28 289.42,-220.21"/>
</g>
<!-- area_trigger -->
<g id="node9" class="node">
<title>area_trigger</title>
<polygon fill="none" stroke="black" points="246,-124 170,-124 170,-88 246,-88 246,-124"/>
<text text-anchor="middle" x="208" y="-100.95" font-family="Times,serif" font-size="14.00">Update tile</text>
</g>
<!-- update_joints&#45;&gt;area_trigger -->
<g id="edge9" class="edge">
<title>update_joints&#45;&gt;area_trigger</title>
<path fill="none" stroke="blue" d="M196.18,-172C198.13,-161.28 200.67,-147.32 202.89,-135.08"/>
<polygon fill="blue" stroke="blue" points="206.48,-135.94 204.82,-125.47 199.59,-134.68 206.48,-135.94"/>
</g>
<!-- find_points_of_interest -->
<g id="node12" class="node">
<title>find_points_of_interest</title>
<polygon fill="none" stroke="black" points="152,-124 16,-124 16,-88 152,-88 152,-124"/>
<text text-anchor="middle" x="84" y="-100.95" font-family="Times,serif" font-size="14.00">Find points of interest</text>
</g>
<!-- update_joints&#45;&gt;find_points_of_interest -->
<g id="edge10" class="edge">
<title>update_joints&#45;&gt;find_points_of_interest</title>
<path fill="none" stroke="blue" d="M169.88,-172C154.13,-160.08 133.07,-144.14 115.75,-131.03"/>
<polygon fill="blue" stroke="blue" points="118.17,-127.72 108.08,-124.47 113.94,-133.3 118.17,-127.72"/>
</g>
<!-- throw_ball -->
<g id="node10" class="node">
<title>throw_ball</title>
<polygon fill="none" stroke="black" points="340,-124 264,-124 264,-88 340,-88 340,-124"/>
<text text-anchor="middle" x="302" y="-100.95" font-family="Times,serif" font-size="14.00">Throw ball</text>
</g>
<!-- execute_action&#45;&gt;throw_ball -->
<g id="edge14" class="edge">
<title>execute_action&#45;&gt;throw_ball</title>
<path fill="none" stroke="blue" d="M303.58,-172C303.32,-161.39 302.98,-147.6 302.69,-135.46"/>
<polygon fill="blue" stroke="blue" points="306.16,-135.38 302.42,-125.47 299.17,-135.55 306.16,-135.38"/>
</g>
<!-- set_action_from_poi_list -->
<g id="node8" class="node">
<title>set_action_from_poi_list</title>
<polygon fill="none" stroke="black" points="130.5,-208.5 33.5,-208.5 33.5,-172.5 130.5,-172.5 130.5,-208.5"/>
<text text-anchor="middle" x="82" y="-185.45" font-family="Times,serif" font-size="14.00">Set action plan</text>
</g>
<!-- update_chain_reaction -->
<g id="node11" class="node">
<title>update_chain_reaction</title>
<polygon fill="none" stroke="black" points="307.62,-52 172.38,-52 172.38,-16 307.62,-16 307.62,-52"/>
<text text-anchor="middle" x="240" y="-28.95" font-family="Times,serif" font-size="14.00">Update chain reaction</text>
</g>
<!-- area_trigger&#45;&gt;update_chain_reaction -->
<g id="edge12" class="edge">
<title>area_trigger&#45;&gt;update_chain_reaction</title>
<path fill="none" stroke="blue" d="M215.91,-87.7C219.48,-79.9 223.77,-70.51 227.74,-61.83"/>
<polygon fill="blue" stroke="blue" points="231.21,-63.65 232.18,-53.1 224.84,-60.74 231.21,-63.65"/>
</g>
<!-- throw_ball&#45;&gt;update_chain_reaction -->
<g id="edge13" class="edge">
<title>throw_ball&#45;&gt;update_chain_reaction</title>
<path fill="none" stroke="blue" d="M286.67,-87.7C279.32,-79.39 270.36,-69.28 262.27,-60.14"/>
<polygon fill="blue" stroke="blue" points="265.4,-58.27 256.15,-53.1 260.16,-62.91 265.4,-58.27"/>
</g>
<!-- find_points_of_interest&#45;&gt;set_action_from_poi_list -->
<g id="edge11" class="edge">
<title>find_points_of_interest&#45;&gt;set_action_from_poi_list</title>
<path fill="none" stroke="blue" d="M83.58,-124.47C83.32,-135.08 82.99,-148.86 82.69,-161.01"/>
<polygon fill="blue" stroke="blue" points="79.17,-160.92 82.42,-171 86.17,-161.09 79.17,-160.92"/>
</g>
</g>
</svg>
