<?xml version="1.0" encoding="UTF-8" standalone="no"?>
<!-- Created with Inkscape (http://www.inkscape.org/) -->

<svg
   width="14400"
   height="480"
   viewBox="0 0 14400 480"
   version="1.1"
   id="svg1"
   inkscape:version="1.3.2 (091e20e, 2023-11-25, custom)"
   sodipodi:docname="sprites_master.svg"
   inkscape:export-filename="sprites_rotated.png"
   inkscape:export-xdpi="96"
   inkscape:export-ydpi="96"
   xmlns:inkscape="http://www.inkscape.org/namespaces/inkscape"
   xmlns:sodipodi="http://sodipodi.sourceforge.net/DTD/sodipodi-0.dtd"
   xmlns="http://www.w3.org/2000/svg"
   xmlns:svg="http://www.w3.org/2000/svg">
  <sodipodi:namedview
     id="namedview1"
     pagecolor="#ffffff"
     bordercolor="#666666"
     borderopacity="1.0"
     inkscape:showpageshadow="2"
     inkscape:pageopacity="0.0"
     inkscape:pagecheckerboard="0"
     inkscape:deskcolor="#d1d1d1"
     inkscape:document-units="px"
     inkscape:zoom="1.4152863"
     inkscape:cx="529.92811"
     inkscape:cy="238.46765"
     inkscape:window-width="1920"
     inkscape:window-height="1057"
     inkscape:window-x="-8"
     inkscape:window-y="-8"
     inkscape:window-maximized="1"
     inkscape:current-layer="layer1"
     showgrid="true">
    <inkscape:grid
       id="grid5"
       units="px"
       originx="0"
       originy="0"
       spacingx="4"
       spacingy="4"
       empcolor="#3333ff"
       empopacity="0.25098039"
       color="#04d5ff"
       opacity="0.1254902"
       empspacing="8"
       dotted="false"
       gridanglex="30"
       gridanglez="30"
       visible="true" />
  </sodipodi:namedview>
  <defs
     id="defs1">
    <marker
       id="RoundedArrow"
       refX="-1"
       refY="0"
       orient="auto-start-reverse"
       inkscape:stockid="Rounded arrow"
       markerWidth="0.32"
       markerHeight="0.42"
       viewBox="0 0 1 1"
       inkscape:isstock="true"
       inkscape:collect="always"
       preserveAspectRatio="none">
      <path
         transform="scale(0.7)"
         d="m -0.21114562,-4.1055728 6.42229122,3.21114561 a 1,1 90 0 1 0,1.78885438 L -0.21114562,4.1055728 A 1.236068,1.236068 31.717474 0 1 -2,3 v -6 a 1.236068,1.236068 148.28253 0 1 1.78885438,-1.1055728 z"
         style="fill:context-stroke;fill-rule:evenodd"
         id="path20" />
    </marker>
  </defs>
  <g
     inkscape:groupmode="layer"
     id="layer3"
     inkscape:label="background"
     sodipodi:insensitive="true"
     style="display:none">
    <rect
       style="fill:#0000ff;fill-opacity:0.5"
       id="rect44"
       width="1920"
       height="1080"
       x="0"
       y="0" />
  </g>
  <g
     inkscape:groupmode="layer"
     id="layer4"
     inkscape:label="arm parts"
     sodipodi:insensitive="true">
    <g
       id="g26"
       inkscape:label="arm_bottom">
      <path
         style="fill:#ffffff;stroke:#000000;stroke-width:3;stroke-linecap:round;stroke-linejoin:round"
         d="M 12,21.03125 C 9.0839008,28.110412 9.07008,36.926547 12,44 c 1.44319,3.484168 8,8 8,8 v 36 l 4,32 c 0,0 -3.318487,5.78856 -4,9 -0.48438,2.2825 -0.892928,4.84428 0,7 1.44319,3.48417 4.515832,6.55681 8,8 2.155719,0.89293 4.844281,0.89293 7,0 3.484168,-1.44319 6.55681,-4.51583 8,-8 0.892928,-2.15572 0.48438,-4.7175 0,-7 -0.681513,-3.21144 -4,-9 -4,-9 L 43,88 V 52 c 0,0 6.55681,-4.515832 8,-8 2.937893,-7.0927 2.95174,-15.944301 0,-23.03125 C 49.549997,17.487381 46.455757,14.436393 42.96875,13 c -7.088793,-2.920067 -15.922667,-2.947735 -23,0 C 16.487381,14.450003 13.436393,17.544243 12,21.03125 Z"
         id="path15"
         sodipodi:nodetypes="sscccsssssscccsssss" />
      <circle
         style="fill:none;stroke:#000000;stroke-width:0.9"
         id="circle17"
         cx="31.5"
         cy="32.5"
         r="13" />
      <circle
         style="fill:#000000;stroke:#000000;stroke-width:1;paint-order:stroke markers fill"
         id="circle18"
         cx="31.5"
         cy="132.5"
         r="7" />
      <path
         style="fill:#000000"
         d="M 31.5,40 28,36 h 7 z"
         id="path19"
         sodipodi:nodetypes="cccc" />
      <path
         style="fill:#000000"
         d="m 24,56 15,4 v 3 L 24,59 Z"
         id="path23"
         sodipodi:nodetypes="ccccc" />
      <path
         style="fill:#000000"
         d="m 24,62 15,4 v 3 L 24,65 Z"
         id="path24"
         sodipodi:nodetypes="ccccc" />
      <path
         style="fill:#000000"
         d="m 24,68 15,4 v 3 L 24,71 Z"
         id="path25"
         sodipodi:nodetypes="ccccc" />
      <path
         style="fill:#000000"
         d="m 24,74 15,4 v 3 L 24,77 Z"
         id="path26"
         sodipodi:nodetypes="ccccc" />
    </g>
    <g
       id="g1"
       inkscape:label="arm_top">
      <path
         id="path8"
         style="fill:#ffffff"
         d="M 31.464844,170.79883 C 27.485621,170.79537 23.507405,171.52613 19.96875,173 16.48739,174.45 13.43639,177.54424 12,181.03125 9.0839095,188.11038 9.0700887,196.92658 12,204 c 1.443187,3.48417 8,8 8,8 v 36 l 4,32 c 0,0 -3.31849,5.78856 -4,9 -0.48438,2.2825 -0.892925,4.84428 0,7 1.443187,3.48417 4.515841,6.55681 8,8 2.155713,0.89293 4.844287,0.89293 7,0 3.484159,-1.44319 6.556813,-4.51583 8,-8 0.892925,-2.15572 0.48438,-4.7175 0,-7 -0.68151,-3.21144 -4,-9 -4,-9 l 4,-32 v -36 c 0,0 6.556813,-4.51583 8,-8 2.937884,-7.09267 2.951731,-15.94433 0,-23.03125 -1.45,-3.48137 -4.544252,-6.53236 -8.03125,-7.96875 -3.544385,-1.46003 -7.524684,-2.19771 -11.503906,-2.20117 z M 31.5,179.5 c 7.179695,0 13,5.82031 13,13 0,7.17969 -5.820305,13 -13,13 -7.179695,0 -13,-5.82031 -13,-13 0,-7.17969 5.820305,-13 13,-13 z m 0,107 a 6,6 0 0 1 6,6 6,6 0 0 1 -6,6 6,6 0 0 1 -6,-6 6,6 0 0 1 6,-6 z" />
      <path
         style="fill:#000000"
         d="m 27,266 1,2 h 7 l 1,-2 z"
         id="path13"
         sodipodi:nodetypes="ccccc" />
      <path
         style="fill:#000000"
         d="m 27,270 1,2 h 7 l 1,-2 z"
         id="path14"
         sodipodi:nodetypes="ccccc" />
      <path
         style="fill:#000000"
         d="m 27,274 1,2 h 7 l 1,-2 z"
         id="path16"
         sodipodi:nodetypes="ccccc" />
      <path
         id="path1"
         style="fill:none;stroke:#000000;stroke-width:3;stroke-linecap:round;stroke-linejoin:round"
         d="M 31.464844,170.79883 C 27.485621,170.79537 23.507405,171.52613 19.96875,173 16.48739,174.45 13.43639,177.54424 12,181.03125 9.0839095,188.11038 9.0700887,196.92658 12,204 c 1.443187,3.48417 8,8 8,8 v 36 l 4,32 c 0,0 -3.31849,5.78856 -4,9 -0.48438,2.2825 -0.892925,4.84428 0,7 1.443187,3.48417 4.515841,6.55681 8,8 2.155713,0.89293 4.844287,0.89293 7,0 3.484159,-1.44319 6.556813,-4.51583 8,-8 0.892925,-2.15572 0.48438,-4.7175 0,-7 -0.68151,-3.21144 -4,-9 -4,-9 l 4,-32 v -36 c 0,0 6.556813,-4.51583 8,-8 2.937884,-7.09267 2.951731,-15.94433 0,-23.03125 -1.45,-3.48137 -4.544252,-6.53236 -8.03125,-7.96875 -3.544385,-1.46003 -7.524684,-2.19771 -11.503906,-2.20117 z"
         sodipodi:nodetypes="sssscccsssssscccssss" />
      <path
         style="fill:#ffffff;stroke:#000000;stroke-width:2;stroke-linecap:round;stroke-linejoin:round"
         d="m 20,216 8,4 v 20 l -8,4 z"
         id="path17"
         sodipodi:nodetypes="ccccc" />
      <circle
         style="fill:none;stroke:#000000;stroke-width:3;stroke-linecap:round;stroke-linejoin:round"
         id="circle2"
         cx="31.5"
         cy="192.5"
         r="13" />
      <circle
         style="fill:none;stroke:#000000;stroke-width:3;stroke-linecap:round;stroke-linejoin:round"
         id="circle3"
         cx="31.5"
         cy="292.5"
         r="6" />
    </g>
    <circle
       style="fill:#000000;stroke:#000000;stroke-width:2;stroke-linecap:round;stroke-linejoin:round"
       id="circle15"
       cx="31.5"
       cy="448.5"
       r="7.5" />
    <g
       id="g29"
       inkscape:label="finger">
      <path
         style="fill:#ffffff;stroke:#000000;stroke-width:3;stroke-linecap:round;stroke-linejoin:round"
         d="m 20,376 8,5 2.5,4 v 8 l -2.5,4 -10,-5 -6,-6 z"
         id="path18"
         sodipodi:nodetypes="cccccccc" />
      <path
         style="fill:#000000;stroke:#000000;stroke-width:1;stroke-linecap:round;stroke-linejoin:round"
         d="m 28,381 -1,4 v 8 l 1,4 2.5,-4 v -8 z"
         id="path22"
         sodipodi:nodetypes="ccccccc" />
      <path
         id="path27"
         style="fill:#ffffff"
         d="m 31.5,340.33008 c -1.211069,0 -2.422142,0.22346 -3.5,0.66992 -3.484165,1.44319 -8,8 -8,8 0,0 -6.178354,1.63981 -8,4 -3.954484,5.12355 -4.121289,12.52898 -4,19 0.1030232,5.4965 4,16 4,16 l 8,-12 v -8 l 8,-4 c 0,0 4.844283,0.89293 7,0 3.484165,-1.44319 6.556811,-4.51583 8,-8 0.892927,-2.15572 0.892927,-4.84428 0,-7 -1.443189,-3.48417 -4.515835,-6.55681 -8,-8 -1.077858,-0.44646 -2.288931,-0.66992 -3.5,-0.66992 z M 31.5,347 c 3.037563,0 5.5,2.46243 5.5,5.5 0,3.03757 -2.462437,5.5 -5.5,5.5 z" />
      <circle
         style="fill:none;stroke:#000000;stroke-width:1;stroke-linecap:round;stroke-linejoin:round"
         id="circle21"
         cx="31.5"
         cy="352.5"
         r="7" />
      <path
         style="fill:none;stroke:#000000;stroke-width:3;stroke-linecap:round;stroke-linejoin:round"
         d="m 28,341 c 2.155719,-0.89293 4.844281,-0.89293 7,0 3.484168,1.44319 6.55681,4.51583 8,8 0.892928,2.15572 0.892928,4.84428 0,7 -1.44319,3.48417 -4.515832,6.55681 -8,8 -2.155719,0.89293 -7,0 -7,0 l -8,4 v 8 l -8,12 c 0,0 -3.8969767,-10.50349 -4,-16 -0.1212891,-6.47103 0.045512,-13.87644 4,-19 1.821648,-2.36019 8,-4 8,-4 0,0 4.515832,-6.55681 8,-8 z"
         id="path29"
         sodipodi:nodetypes="sssssccccsscs" />
    </g>
  </g>
  <g
     inkscape:groupmode="layer"
     id="layer1"
     inkscape:label="ui parts"
     sodipodi:insensitive="true">
    <path
       style="fill:none;stroke:#000000;stroke-width:8;stroke-linecap:round;stroke-linejoin:round"
       d="m 80,448 h 32"
       id="path2"
       sodipodi:nodetypes="cc"
       inkscape:label="mount_highlight_horizontal" />
    <path
       style="fill:none;stroke:#000000;stroke-width:8;stroke-linecap:round;stroke-linejoin:round"
       d="m 160,432 v 32"
       id="path3"
       sodipodi:nodetypes="cc"
       inkscape:label="mount_highlight_vertical" />
    <path
       style="fill:none;stroke:#000000;stroke-width:8;stroke-linecap:round;stroke-linejoin:round"
       d="m 212.68629,436.68629 22.62742,22.62742"
       id="path4"
       sodipodi:nodetypes="cc"
       inkscape:label="mount_highlight_diagonal1" />
    <path
       style="fill:none;stroke:#000000;stroke-width:8;stroke-linecap:round;stroke-linejoin:round"
       d="m 299.31371,436.68629 -22.62742,22.62742"
       id="path9"
       sodipodi:nodetypes="cc"
       inkscape:label="mount_highlight_diagonal2" />
    <circle
       style="fill:#000000"
       id="path10"
       cx="352"
       cy="448"
       r="20"
       inkscape:label="eat_highlight" />
    <circle
       style="fill:none;stroke:#000000;stroke-width:4;stroke-linecap:round;stroke-linejoin:round;stroke-dasharray:4, 6.16;stroke-dashoffset:0"
       id="circle1"
       cx="416"
       cy="448"
       r="16"
       inkscape:label="summon_ball" />
    <rect
       style="fill:#000000"
       id="rect1"
       width="64"
       height="32"
       x="512"
       y="416"
       ry="4"
       inkscape:label="help_background2" />
    <rect
       style="fill:#000000"
       id="rect11"
       width="32"
       height="32"
       x="448"
       y="416"
       ry="4"
       inkscape:label="help_background" />
    <g
       id="g2"
       inkscape:label="dpad_up">
      <rect
         style="fill:#ffffff"
         id="rect2"
         width="8"
         height="24"
         x="620"
         y="420"
         ry="2" />
      <rect
         style="fill:#ffffff"
         id="rect3"
         width="24"
         height="8"
         x="612"
         y="428"
         ry="2" />
      <circle
         style="fill:#000000"
         id="path11"
         cx="624"
         cy="424"
         r="2.5" />
    </g>
    <g
       id="g21"
       inkscape:label="crank_clockwise0"
       transform="translate(64)">
      <path
         id="path12"
         style="fill:none;stroke:#ffffff;stroke-width:4;stroke-linecap:round;stroke-linejoin:round;marker-start:url(#RoundedArrow)"
         d="m 624,424 c -4.41828,0 -8,3.58172 -8,8 0,4.41828 3.58172,8 8,8 4.41828,0 8,-3.58172 8,-8 0,-0.87774 -0.14136,-1.72247 -0.40255,-2.51266"
         sodipodi:nodetypes="csssc"
         inkscape:transform-center-x="-0.03125"
         inkscape:transform-center-y="0.053307877" />
      <circle
         style="fill:none"
         id="path21"
         cx="624"
         cy="432"
         r="16"
         inkscape:label="bounding circle" />
    </g>
    <g
       id="g30"
       inkscape:label="crank_clockwise1"
       transform="rotate(11.25,672,919.35218)">
      <path
         id="path30"
         style="fill:none;stroke:#ffffff;stroke-width:4;stroke-linecap:round;stroke-linejoin:round;marker-start:url(#RoundedArrow)"
         d="m 624,424 c -4.41828,0 -8,3.58172 -8,8 0,4.41828 3.58172,8 8,8 4.41828,0 8,-3.58172 8,-8 0,-0.87774 -0.14136,-1.72247 -0.40255,-2.51266"
         sodipodi:nodetypes="csssc"
         inkscape:transform-center-x="-0.03125"
         inkscape:transform-center-y="0.053307877" />
      <circle
         style="fill:none"
         id="circle30"
         cx="624"
         cy="432"
         r="16"
         inkscape:label="bounding circle" />
    </g>
    <g
       id="g31"
       inkscape:label="crank_clockwise2"
       transform="rotate(22.5,688,753.74973)">
      <path
         id="path31"
         style="fill:none;stroke:#ffffff;stroke-width:4;stroke-linecap:round;stroke-linejoin:round;marker-start:url(#RoundedArrow)"
         d="m 624,424 c -4.41828,0 -8,3.58172 -8,8 0,4.41828 3.58172,8 8,8 4.41828,0 8,-3.58172 8,-8 0,-0.87774 -0.14136,-1.72247 -0.40255,-2.51266"
         sodipodi:nodetypes="csssc"
         inkscape:transform-center-x="-0.03125"
         inkscape:transform-center-y="0.053307877" />
      <circle
         style="fill:none"
         id="circle31"
         cx="624"
         cy="432"
         r="16"
         inkscape:label="bounding circle" />
    </g>
    <g
       id="g32"
       inkscape:label="crank_clockwise3"
       transform="rotate(33.75,704,695.72466)">
      <path
         id="path32"
         style="fill:none;stroke:#ffffff;stroke-width:4;stroke-linecap:round;stroke-linejoin:round;marker-start:url(#RoundedArrow)"
         d="m 624,424 c -4.41828,0 -8,3.58172 -8,8 0,4.41828 3.58172,8 8,8 4.41828,0 8,-3.58172 8,-8 0,-0.87774 -0.14136,-1.72247 -0.40255,-2.51266"
         sodipodi:nodetypes="csssc"
         inkscape:transform-center-x="-0.03125"
         inkscape:transform-center-y="0.053307877" />
      <circle
         style="fill:none"
         id="circle32"
         cx="624"
         cy="432"
         r="16"
         inkscape:label="bounding circle" />
    </g>
    <g
       id="g33"
       inkscape:label="crank_clockwise4"
       transform="rotate(45,720,663.7645)">
      <path
         id="path33"
         style="fill:none;stroke:#ffffff;stroke-width:4;stroke-linecap:round;stroke-linejoin:round;marker-start:url(#RoundedArrow)"
         d="m 624,424 c -4.41828,0 -8,3.58172 -8,8 0,4.41828 3.58172,8 8,8 4.41828,0 8,-3.58172 8,-8 0,-0.87774 -0.14136,-1.72247 -0.40255,-2.51266"
         sodipodi:nodetypes="csssc"
         inkscape:transform-center-x="-0.03125"
         inkscape:transform-center-y="0.053307877" />
      <circle
         style="fill:none"
         id="circle33"
         cx="624"
         cy="432"
         r="16"
         inkscape:label="bounding circle" />
    </g>
    <g
       id="g34"
       inkscape:label="crank_clockwise5"
       transform="rotate(56.25,736,641.53726)">
      <path
         id="path34"
         style="fill:none;stroke:#ffffff;stroke-width:4;stroke-linecap:round;stroke-linejoin:round;marker-start:url(#RoundedArrow)"
         d="m 624,424 c -4.41828,0 -8,3.58172 -8,8 0,4.41828 3.58172,8 8,8 4.41828,0 8,-3.58172 8,-8 0,-0.87774 -0.14136,-1.72247 -0.40255,-2.51266"
         sodipodi:nodetypes="csssc"
         inkscape:transform-center-x="-0.03125"
         inkscape:transform-center-y="0.053307877" />
      <circle
         style="fill:none"
         id="circle34"
         cx="624"
         cy="432"
         r="16"
         inkscape:label="bounding circle" />
    </g>
    <g
       id="g35"
       inkscape:label="crank_clockwise6"
       transform="rotate(67.5,752,623.56554)">
      <path
         id="path35"
         style="fill:none;stroke:#ffffff;stroke-width:4;stroke-linecap:round;stroke-linejoin:round;marker-start:url(#RoundedArrow)"
         d="m 624,424 c -4.41828,0 -8,3.58172 -8,8 0,4.41828 3.58172,8 8,8 4.41828,0 8,-3.58172 8,-8 0,-0.87774 -0.14136,-1.72247 -0.40255,-2.51266"
         sodipodi:nodetypes="csssc"
         inkscape:transform-center-x="-0.03125"
         inkscape:transform-center-y="0.053307877" />
      <circle
         style="fill:none"
         id="circle35"
         cx="624"
         cy="432"
         r="16"
         inkscape:label="bounding circle" />
    </g>
    <g
       id="g36"
       inkscape:label="crank_clockwise7"
       transform="rotate(78.25,768,609.03408)">
      <path
         id="path36"
         style="fill:none;stroke:#ffffff;stroke-width:4;stroke-linecap:round;stroke-linejoin:round;marker-start:url(#RoundedArrow)"
         d="m 624,424 c -4.41828,0 -8,3.58172 -8,8 0,4.41828 3.58172,8 8,8 4.41828,0 8,-3.58172 8,-8 0,-0.87774 -0.14136,-1.72247 -0.40255,-2.51266"
         sodipodi:nodetypes="csssc"
         inkscape:transform-center-x="-0.03125"
         inkscape:transform-center-y="0.053307877" />
      <circle
         style="fill:none"
         id="circle36"
         cx="624"
         cy="432"
         r="16"
         inkscape:label="bounding circle" />
    </g>
    <path
       id="path7-7"
       style="fill:none;stroke:#000000;stroke-width:4;stroke-linecap:round;stroke-linejoin:round;stroke-dasharray:4, 6.16;stroke-dashoffset:0.8"
       d="m 1008,412 a 16,16 0 0 0 -16,16 16,16 0 0 0 0.004,0.0586 c -9.2852,0.26747 -20.1619,1.58468 -28.004,5.9414 -1.28761,0.71534 -1.16272,1.09566 0,2 4.51936,3.51506 9.54598,5.51638 16.4668,6.63867 A 8,8 0 0 0 988,448 a 8,8 0 0 0 7,-4.16797 c 1.89361,0.0598 3.9526,0.0955 6.0664,0.12109 A 8,8 0 0 0 1008,448 a 8,8 0 0 0 6.9336,-4.04688 c 2.1066,-0.0251 4.1666,-0.0588 6.0684,-0.11718 A 8,8 0 0 0 1028,448 a 8,8 0 0 0 7.5117,-5.30664 c 7.2493,-1.11042 12.3986,-3.11485 16.4883,-6.69336 1.0443,-0.91373 1.2221,-1.401 0,-2 -8.0924,-3.96635 -18.7758,-5.57283 -28.0059,-5.92188 A 16,16 0 0 0 1024,428 16,16 0 0 0 1008,412 Z"
       inkscape:label="summon_ufo" />
  </g>
  <g
     inkscape:groupmode="layer"
     id="layer2"
     inkscape:label="guides"
     style="display:none"
     sodipodi:insensitive="true">
    <g
       id="g8"
       transform="translate(127,-1)">
      <rect
         style="fill:none;stroke:#3fbf3f;stroke-width:2"
         id="rect5"
         width="400"
         height="240"
         x="1"
         y="1" />
      <path
         style="fill:none;stroke:#3fbf3f;stroke-width:2"
         d="m 4.8457954,149.2505 c 1.2922121,-0.64611 2.5160668,-1.4524 3.8766363,-1.93832 7.7135743,-2.75485 13.6156173,-3.87723 21.8060793,-5.33038 5.961452,-1.05767 11.876987,-3.06675 17.929443,-2.90747 12.517878,0.32942 25.000417,2.0775 37.312624,4.36121 3.384222,0.62772 43.752552,13.36763 46.519632,14.05281 8.9481,2.21572 18.10429,3.48708 27.13646,5.33037 6.798,1.38735 13.59636,2.7819 20.35234,4.36122 13.00877,3.04101 26.15382,6.82103 38.76636,11.14533 4.11414,1.41056 8.0489,3.30087 12.11449,4.8458 19.67918,7.47808 4.77841,0.96785 21.3215,8.72243 2.09406,0.98159 4.2731,1.79294 6.29953,2.90747 3.07253,1.6899 5.31726,4.34811 7.75328,6.78412 3.84726,3.84726 2.71304,2.5083 5.81495,6.29953 0.65494,0.80049 1.40619,1.53602 1.93832,2.4229 0.92914,1.54856 1.61526,3.23053 2.4229,4.84579 0.32305,0.64611 0.6846,1.27436 0.96916,1.93832 0.20121,0.46949 0.32305,0.96916 0.48457,1.45374 0.32306,0.96916 0.64611,1.93832 0.96916,2.90748 0.16153,0.48458 0.37378,0.95511 0.48458,1.45374 0.21314,0.95913 0.30882,1.9408 0.48458,2.90747 0.14734,0.81035 0.39363,1.60431 0.48458,2.4229 0.0713,0.64216 0,1.29221 0,1.93832 0,0.64611 0,1.29221 0,1.93832 0,0.80763 0.10018,1.6215 0,2.4229 -0.12671,1.01369 -0.80121,1.89979 -0.96916,2.90747 -0.0797,0.47799 0.0601,0.9729 0,1.45374 -0.0293,1.51386 -0.75855,2.88698 -0.96916,4.36122 -0.14133,0.98935 0.18845,2.44982 0,3.39205 -0.0448,0.224 -0.41234,0.26787 -0.48458,0.48458 -7.3e-4,0.002 4.7e-4,1.45328 0,1.45374 -0.6461,0.64611 -0.48457,-0.80763 -0.48457,0.48458"
         id="path5" />
      <path
         style="fill:none;stroke:#3fbf3f;stroke-width:2"
         d="m 134.77466,138.56911 c -5.97076,0.65574 -16.10069,1.72188 -19.16153,3.0794 -5.74204,2.54663 -3.37766,10.76704 -2.31935,14.39202 0.80216,2.74756 2.15301,5.30513 3.30774,7.92412 0.21024,0.47683 0.62265,1.08012 1.12207,1.33923 0.32059,0.16636 0.73451,0.1499 1.01626,0.37589 0.28175,0.22599 0.27661,0.7266 0.5875,0.91047 0.43963,0.26004 1.00295,0.19691 1.49795,0.32297 0.84293,0.2147 1.71637,0.35234 2.51421,0.69887 0.41904,0.18202 0.66365,0.64716 1.06916,0.85756 0.28676,0.14879 0.66038,-0.21786 0.96337,-0.10575 2.42077,0.89536 -3.86234,0.30339 2.56712,1.18055 0.64018,0.0873 1.2845,-0.14103 1.92673,-0.2116 0.48169,-0.053 0.96337,-0.10586 1.44506,-0.15868 2.72954,-0.29977 5.45907,-0.59954 8.18861,-0.89931 4.1746,-0.45848 8.34919,-0.91695 12.52377,-1.37542 0.48169,-0.0529 0.97862,-0.0273 1.44505,-0.15868 0.49167,-0.1385 0.98547,-0.33134 1.39216,-0.64038 0.36374,-0.27643 0.5717,-0.71278 0.85756,-1.06917 0.85756,-1.06917 1.66012,-2.18489 2.57269,-3.20751 0.53774,-0.60258 1.26271,-1.02663 1.76803,-1.65665 0.22599,-0.28176 0.22498,-0.68811 0.37588,-1.01626 0.33677,-0.73232 0.99598,-1.71109 1.18055,-2.56713 0.034,-0.15789 -0.0352,-0.32112 -0.0529,-0.48168 -0.0706,-0.64224 0.0126,-1.32076 -0.21161,-1.92674 -0.25066,-0.67747 -0.87309,-1.16466 -1.17497,-1.82092 -0.34434,-0.74855 -0.74687,-2.90585 -1.38657,-3.74767 -0.27642,-0.36375 -0.71278,-0.57171 -1.06917,-0.85756 -0.17819,-0.14293 -0.33182,-0.32359 -0.53459,-0.42878 -0.32059,-0.16634 -0.73451,-0.14991 -1.01626,-0.37589 -0.126,-0.10107 0.0731,-0.38062 -0.0529,-0.48168 -0.12599,-0.10106 -0.35568,0.15395 -0.48168,0.0529 -1.29839,-1.04143 0.0656,-0.72305 -1.12208,-1.33924 -0.32058,-0.16635 -0.76929,-0.11233 -1.01625,-0.37588 -0.34926,-0.37274 -0.31235,-1.00063 -0.64039,-1.39215 -0.10375,-0.12383 -0.35568,0.15396 -0.48168,0.0529 -0.126,-0.10107 -0.0353,-0.32111 -0.0529,-0.48169 -0.0529,-0.48168 -0.22422,-0.96491 -0.15869,-1.44504 0.0309,-0.22634 0.28585,-0.35639 0.42879,-0.53459 0.14291,-0.17819 0.25368,-0.38787 0.42877,-0.53458 0.27686,-0.23196 0.64691,-0.34054 0.91046,-0.58748 0.3334,-0.31239 0.48802,-0.80056 0.85757,-1.06916 0.70361,-0.51145 1.59291,-0.72496 2.30262,-1.22789 0.65895,-0.46695 1.14896,-1.13798 1.76803,-1.65665 0.27685,-0.23196 0.63361,-0.35552 0.91046,-0.58748 0.41776,-0.35001 1.44053,-1.79598 1.71514,-2.13834 0.14292,-0.1782 0.25368,-0.38788 0.42878,-0.53458 0.27685,-0.23195 0.62288,-0.36896 0.91046,-0.58749 0.4637,-0.35237 0.8499,-0.8063 1.33925,-1.12207 0.13574,-0.0876 0.34595,0.0347 0.48168,-0.0529 2.179,-1.40601 -1.32143,0.33684 0.85757,-1.06917 0.4292,-0.27694 0.96296,-0.36344 1.39215,-0.64038 0.48936,-0.31576 0.83218,-0.83559 1.33925,-1.12208 0.57984,-0.32759 1.25727,-0.44149 1.87384,-0.69328 0.47288,-0.1931 0.91308,-0.46313 1.39215,-0.64039 0.15148,-0.0561 0.33493,0.0146 0.48168,-0.0529 1.1507,-0.52933 1.55572,-1.60978 2.67848,-2.24413 2.14162,-1.20998 2.00193,-0.0994 4.17646,-1.92115 0.27684,-0.23196 0.14989,-0.73453 0.37587,-1.01628 0.10107,-0.126 0.34596,0.0347 0.48169,-0.0529 0.19194,-0.12386 0.28585,-0.35639 0.42878,-0.53459 0.14292,-0.17819 0.23685,-0.41073 0.42879,-0.53459 0.27144,-0.17515 0.76123,0.1462 0.96337,-0.10575 0.22598,-0.28175 0.099,-0.7843 0.37588,-1.01626 0.24763,-0.20748 0.66987,0.0292 0.96336,-0.10575 0.41507,-0.19093 0.47368,-0.82147 0.85756,-1.06917 0.13574,-0.0876 0.38064,0.0731 0.48169,-0.0529 0.22599,-0.28174 0.099,-0.7843 0.37588,-1.01626 0.24763,-0.20746 0.66988,0.0292 0.96337,-0.10575 0.65627,-0.30188 1.21396,-0.78331 1.82094,-1.17497 3.11327,-2.00887 -1.61632,1.17885 1.76803,-1.65665 0.12382,-0.10376 0.32111,-0.0353 0.48168,-0.053 0.30348,-0.19581 0.64691,-0.34051 0.91046,-0.58747 0.33338,-0.31238 0.49382,-0.79276 0.85757,-1.06917 0.81339,-0.61808 1.9259,-0.72689 2.7843,-1.28077 0.25293,-0.16322 0.70224,-1.05211 0.85756,-1.06916 0.35904,-0.0395 0.7201,0.16913 1.01628,0.37587 1.12383,0.78455 2.0757,1.79965 3.20749,2.5727 1.33383,0.91104 2.78058,1.6446 4.17087,2.46689 1.70778,1.01008 3.50983,2.66936 5.66882,2.78988 0.48385,0.0271 0.96337,-0.10586 1.44506,-0.15868 0.64224,-0.0705 1.28448,-0.14104 1.92674,-0.21161 2.81133,-0.30875 4.05181,-0.36411 7.17234,-1.27519 1.12881,-0.32957 2.15588,-0.94575 3.26599,-1.33368 0.92752,-0.32412 1.93526,-0.40935 2.8372,-0.79908 2.76628,-1.19537 5.09446,-3.10824 7.23082,-5.18157 2.04783,-1.98742 2.89658,-2.66446 4.28783,-5.34584 0.49903,-0.9618 0.72115,-2.04439 1.12764,-3.0488 1.43736,-3.551621 1.72479,-2.784031 1.77361,-6.044703 0.008,-0.484529 -0.10576,-0.963369 -0.15869,-1.445051 -0.0705,-0.642242 -0.14103,-1.284491 -0.2116,-1.926734 -0.14619,-1.331571 -0.18641,-2.567501 -0.90489,-3.800565 -0.40662,-0.697805 -1.13797,-1.148962 -1.65665,-1.768031 -0.60488,-0.721951 -1.10468,-1.527764 -1.70956,-2.249714 -0.51866,-0.619069 -1.15126,-1.13807 -1.65665,-1.768031 -0.81491,-1.015782 -1.36729,-2.24833 -2.29704,-3.16018 -0.73841,-0.724201 -1.8132,-1.015099 -2.62002,-1.662231 -0.45431,-0.364393 -0.74804,-0.892832 -1.12207,-1.339248 -1.06917,-0.857566 -2.07081,-1.806883 -3.2075,-2.572695 -1.15237,-0.776376 -2.44903,-1.316212 -3.6363,-2.038111 -5.94639,-3.61564 -0.36309,-1.071462 -9.30511,-4.827986 -0.99897,-0.419672 -1.98958,-0.899264 -3.04879,-1.127646 -0.96045,-0.207089 -1.96428,-0.07792 -2.943,-0.164278 -2.4431,-0.215572 -2.06714,-0.509319 -4.92264,-0.434359 -0.96882,0.02542 -1.92673,0.211604 -2.89009,0.317405 -0.80281,0.08817 -1.64386,0.0043 -2.40842,0.264502 -0.68385,0.23275 -1.1763,0.849008 -1.82093,1.174971 -0.59434,0.300524 -1.27951,0.392762 -1.87384,0.693287 -2.68471,1.357522 -4.68532,3.599602 -5.62707,6.467909 -2.19863,6.696373 0.55567,-0.356032 -0.86314,5.45722 -0.67298,2.757387 -1.6507,2.506833 -0.91604,4.975535 0.99134,3.331281 1.27684,2.77574 2.56154,5.568597 0.27833,0.605047 0.39275,1.279501 0.69329,1.873833 0.32596,0.644641 0.9243,1.143446 1.17497,1.820931 0.28024,0.757452 0.17633,1.605611 0.2645,2.408417 0.0705,0.642243 0.14104,1.28449 0.21161,1.926733 0.0176,0.160561 0.15395,0.355682 0.0529,0.481682 -0.226,0.281751 -0.63362,0.355527 -0.91048,0.587486 -0.51509,0.431563 -0.77123,1.172186 -1.28633,1.603745 -2.85527,2.39223 -7.28483,3.09185 -10.76132,4.10683 -3.92851,1.14693 -6.42549,2.0716 -10.33253,3.57223 -1.09774,0.42162 -2.24216,0.75522 -3.26599,1.33367 -1.13381,0.6406 -2.04054,1.63196 -3.16017,2.29704 -0.5726,0.34013 -1.2688,0.41496 -1.87384,0.69329 -2.75117,1.26554 -1.72855,1.00724 -4.12354,2.40284 -0.75155,0.43795 -1.5929,0.72494 -2.30263,1.22787 -2.477,1.75524 -3.26579,4.61927 -5.09248,6.89668 -1.17294,1.46237 -2.9502,2.2486 -3.96486,3.8479 -0.31197,0.49177 -0.50817,1.04957 -0.80465,1.55086 -0.33351,0.56385 -0.87596,1.0921 -1.28634,1.60374 -0.14293,0.1782 -0.34955,0.32034 -0.42879,0.53457 -0.0559,0.1515 0.15397,0.35569 0.0529,0.48169 -0.10107,0.126 -0.42565,-0.0986 -0.48167,0.0529 -0.11208,0.303 0.25457,0.67662 0.10575,0.96337 -0.98007,1.88892 -0.76186,-0.43902 -1.33925,1.12208 -0.0559,0.15149 0.10887,0.3302 0.0529,0.48168 -0.0792,0.21425 -0.32357,0.33182 -0.42879,0.53458 -0.16633,0.3206 -0.1499,0.73453 -0.37587,1.01627 -0.3644,0.4543 -0.97486,0.66776 -1.33925,1.12206 -0.10106,0.12602 0.15397,0.35569 0.0529,0.4817 -0.10107,0.126 -0.32111,0.0352 -0.48167,0.0529 -0.2506,0.67752 -0.50119,1.35502 -0.75178,2.03254 z"
         id="path6"
         inkscape:transform-center-x="39.656088"
         inkscape:transform-center-y="18.960907" />
      <path
         style="fill:none;stroke:#3fbf3f;stroke-width:2"
         d="m 214.53852,75.792577 c -9.07277,2.476221 -9.77106,1.019423 -15.22166,6.959721 -2.13338,2.325037 -2.52979,5.577576 -3.51925,8.396751 -0.23923,0.681605 -0.54031,1.343337 -0.88502,1.978154 -0.10901,0.200747 -0.41749,0.281158 -0.46332,0.504945 -0.26042,0.783369 0.26611,1.629454 0.10406,2.420662 -0.0725,0.353839 -0.37004,0.635238 -0.44251,0.989077 -0.0649,0.316486 0.0277,0.64551 0.0416,0.968265 0.0139,0.322755 0.0278,0.645509 0.0416,0.968264 0.0137,0.318128 -0.0403,1.183164 0.0624,1.452394 0.12883,0.33743 0.39693,0.61003 0.52576,0.94746 0.54235,1.42053 -1.18906,-0.94407 0.54657,1.43158 0.13476,0.18445 0.3941,0.26358 0.50495,0.46332 0.42206,0.76059 0.7322,1.57845 1.07232,2.37904 0.19973,0.47012 0.27433,0.99939 0.54657,1.43158 0.75951,1.20578 1.20104,1.56707 2.0406,2.33742 0.26583,0.24391 1.37443,1.13694 1.51483,1.38996 0.0783,0.14123 -0.0982,0.37492 0.0208,0.48413 0.11901,0.1092 0.36511,-0.13002 0.48412,-0.0208 0.11902,0.1092 -0.0982,0.37492 0.0208,0.48412 0.53227,0.48839 1.38219,0.47682 1.97816,0.88502 0.37693,0.25817 0.67326,0.61776 1.00989,0.92664 0.16832,0.15444 0.29643,0.37003 0.50494,0.46332 0.46626,0.2086 0.99125,0.25254 1.47322,0.42169 0.3408,0.11962 0.64183,0.34312 0.98907,0.44251 0.31058,0.0889 0.73024,-0.26003 0.96827,-0.0416 0.67325,0.61776 -1.00703,0.5087 0.52576,0.94745 0.31057,0.0889 0.67337,-0.17355 0.96826,-0.0416 0.14744,0.0659 -0.11731,0.40039 0.0208,0.48414 0.43677,0.26482 1.00695,0.2131 1.47321,0.42169 2.05814,0.92081 -0.519,-0.0112 0.52574,0.94746 0.11902,0.1092 0.35087,-0.11208 0.48414,-0.0208 0.94233,0.64543 1.5824,1.67118 2.52472,2.31661 0.29799,0.20409 0.68023,0.25525 0.98908,0.4425 0.2046,0.12405 1.37369,1.19677 1.51484,1.38995 0.21307,0.29165 0.31268,0.65582 0.52576,0.94746 0.31275,0.42808 1.28183,0.97008 1.51483,1.38996 0.24784,0.44664 0.32538,0.97117 0.54657,1.43158 0.46921,0.97669 1.05152,1.89491 1.57728,2.84236 0.17524,0.31582 0.42319,0.60114 0.52575,0.94746 0.2837,0.95786 -0.0898,0.7314 0.0624,1.4524 0.17017,0.80585 0.29442,1.63038 0.5882,2.39984 0.0814,0.21341 0.33662,0.30888 0.50493,0.46332 0.17526,0.31582 0.42319,0.60114 0.52576,0.94745 0.0918,0.30975 -0.0502,0.65851 0.0416,0.96827 0.10257,0.34631 0.37734,0.61817 0.52576,0.94745 0.20991,0.46567 0.32538,0.97117 0.54657,1.43159 0.31282,0.65112 0.77573,1.22725 1.05152,1.8949 1.01232,2.45065 0.95667,3.08549 1.68133,5.26302 0.32258,0.96932 0.84996,1.87095 1.09315,2.86317 0.0769,0.31376 -0.0353,0.6545 0.0416,0.96826 0.24319,0.99221 0.84995,1.87096 1.09314,2.86318 0.11532,0.47064 0.0416,0.96825 0.0624,1.45238 0.0416,0.96827 0.0832,1.93654 0.12487,2.9048 0.0139,0.32275 -0.0736,0.66647 0.0416,0.96827 0.16295,0.42681 0.92591,0.47756 1.00989,0.92664 0.17814,0.95265 -0.0533,1.95215 0.12487,2.9048 0.042,0.22453 0.39411,0.26357 0.50495,0.46332 0.15675,0.28246 -0.0736,0.66645 0.0416,0.96826 0.12883,0.33742 0.35051,0.63163 0.52576,0.94744 0.0208,0.48414 -0.0529,0.98175 0.0624,1.4524 0.0859,0.35081 0.42319,0.60114 0.52576,0.94746 0.1376,0.46462 0.0416,0.96826 0.0624,1.45239 0.0278,0.64552 0.3471,1.34676 0.0833,1.93654 -0.14751,0.32969 -0.63164,0.3505 -0.94746,0.52575 -0.63164,0.35051 -1.248,0.73006 -1.8949,1.05152 -0.77898,0.38709 -1.64304,0.60872 -2.37904,1.07233 -4.1205,2.59547 -3.4767,2.59824 -6.56973,5.13269 -0.45048,0.36913 -1.01703,0.60159 -1.41077,1.0307 -0.65488,0.71372 -1.44377,2.69643 -1.79085,3.47218 -0.295,0.65938 -0.66066,1.29151 -0.88501,1.97816 -0.22403,0.68566 -1.00451,4.44257 -0.76014,4.88294 0.1404,0.25302 1.249,1.14605 1.51483,1.38997 0.50495,0.46332 0.94945,1.0027 1.51484,1.38996 0.59598,0.4082 1.36045,0.5105 1.97816,0.88501 0.91122,0.55248 0.0748,0.61517 1.49402,0.90583 0.31649,0.0649 0.65411,-0.1169 0.96827,-0.0416 0.84587,0.20281 1.64151,0.57612 2.46227,0.8642 0.97521,0.11974 1.96307,0.16212 2.92561,0.35926 1.00081,0.20497 1.94562,0.6384 2.94643,0.84338 0.96254,0.19714 1.96747,0.14169 2.92561,0.35925 3.57153,0.81102 1.28833,1.03905 4.90375,1.24428 0.80634,0.0458 1.61378,-0.0694 2.42067,-0.10406 1.29101,-0.0555 2.58203,-0.111 3.87306,-0.1665 0.96825,-0.0416 1.93602,-0.1523 2.90479,-0.12488 1.30174,0.0369 2.59235,0.27361 3.89387,0.31763 1.45291,0.0491 2.9048,-0.12487 4.35719,-0.18731 0.64551,-0.0277 1.36036,0.20913 1.93653,-0.0832 1.2391,-0.62878 2.19726,-1.70157 3.28487,-2.56635 0.63215,-0.50264 1.24939,-1.02376 1.87409,-1.53564 0.62469,-0.51188 1.28969,-0.9782 1.87409,-1.53565 0.66118,-0.63068 1.23552,-1.34652 1.85328,-2.01978 0.30888,-0.33663 0.70863,-0.6084 0.92664,-1.00989 0.24374,-0.44888 0.24083,-0.99551 0.42169,-1.47321 0.25578,-0.67557 0.66066,-1.29151 0.88502,-1.97816 0.20685,-0.63305 0.26725,-1.30489 0.40088,-1.95733 0.13363,-0.65245 0.28447,-1.30161 0.40088,-1.95734 0.21987,-1.23844 0.61908,-3.06318 0.29682,-4.37801 -0.24319,-0.99221 -0.65076,-1.94234 -1.09314,-2.86318 -0.23478,-0.48871 -1.14436,-0.71596 -1.49402,-0.90582 -2.07812,-1.12843 -1.00408,-0.8564 -3.47217,-1.79084 -0.47771,-0.18086 -1.0518,-0.13306 -1.47321,-0.42169 -1.21736,-0.83381 0.10767,-0.90148 -1.03071,-1.41078 -0.14744,-0.0659 -0.33669,0.0867 -0.48413,0.0208 -0.41703,-0.18658 -0.61922,-0.68979 -1.00989,-0.92664 -0.32969,-0.14751 -0.65939,-0.29501 -0.98908,-0.44251 -0.16138,0.007 -0.33669,0.0867 -0.48413,0.0208 -0.20852,-0.0933 -0.29643,-0.37003 -0.50495,-0.46332 -0.46624,-0.2086 -1.02432,-0.17795 -1.47321,-0.4217 -0.40149,-0.218 -0.61921,-0.68977 -1.00989,-0.92664 -0.13811,-0.0837 -0.32275,0.0139 -0.48413,0.0208 -0.32969,-0.1475 -0.72294,-0.19832 -0.98907,-0.44251 -0.26613,-0.24419 -0.22778,-0.74335 -0.52576,-0.94745 -0.42142,-0.28864 -1.00696,-0.21309 -1.47321,-0.4217 -0.53161,-0.23784 -0.98221,-0.62791 -1.49402,-0.90583 -0.31741,-0.17234 -0.68023,-0.25525 -0.98908,-0.44251 -0.19534,-0.11843 -0.30961,-0.34488 -0.50494,-0.46331 -0.30885,-0.18725 -0.68024,-0.25526 -0.98908,-0.4425 -0.68512,-0.41539 -0.53003,-0.72548 -1.03071,-1.41078 -0.13475,-0.18445 -0.33662,-0.30888 -0.50494,-0.46332 -0.56304,-0.51663 -2.18527,-1.85197 -2.52473,-2.3166 -0.0953,-0.13043 0.0745,-0.3537 -0.0208,-0.48413 -0.14488,-1.16529 -1.48708,-0.74445 -1.99896,-1.36915 -0.0162,-0.0197 -1.03864,-2.74223 -1.09314,-2.86317 -0.14842,-0.32928 -0.35051,-0.63163 -0.52576,-0.94745 -0.53269,-1.10883 -1.12843,-2.18952 -1.59808,-3.32649 -0.25428,-0.61554 -0.32984,-1.29353 -0.56739,-1.91572 -0.31026,-0.81263 -0.79765,-1.55369 -1.07232,-2.37904 -0.10206,-0.30652 0.0911,-0.67374 -0.0416,-0.96826 -0.23931,-0.53094 -0.74811,-0.90153 -1.0307,-1.41077 -0.0783,-0.14124 0.0251,-0.32926 -0.0208,-0.48413 -0.14504,-0.48976 -0.37891,-0.94909 -0.54657,-1.43159 -0.38596,-1.11078 -0.72017,-2.23926 -1.11395,-3.3473 -0.34209,-0.96261 -0.88206,-1.86363 -1.09314,-2.86317 -0.20024,-0.94825 0.0129,-1.94547 -0.12487,-2.90479 -0.0947,-0.65923 -0.37826,-1.27715 -0.56739,-1.91572 -0.18912,-0.63857 -0.37825,-1.27714 -0.56738,-1.91572 -0.18912,-0.63857 -0.45647,-1.25902 -0.56737,-1.91572 -0.10757,-0.63708 -0.0555,-1.29101 -0.0833,-1.93653 -0.0347,-0.80688 -0.0694,-1.61377 -0.10407,-2.42065 -0.0832,-1.93653 -0.1665,-3.87306 -0.24975,-5.8096 -0.0763,-1.77515 -0.15262,-3.5503 -0.22893,-5.32545 -0.0139,-0.32276 -0.0277,-0.64551 -0.0416,-0.96826 -0.007,-0.16138 -0.13002,-0.36513 -0.0208,-0.48414 0.11148,-0.12151 1.82504,0.0382 1.93652,-0.0833 0.39375,-0.42912 0.54616,-1.03597 0.90583,-1.49402 2.44851,-3.11825 1.62464,-0.93222 3.66494,-5.00783 0.31498,-0.62921 0.69729,-2.90806 0.82257,-3.430546 0.1191,-0.496711 0.25253,-0.991241 0.4217,-1.47321 0.11961,-0.340803 0.40683,-0.629659 0.44251,-0.989077 0.19611,-1.975903 -0.14586,-2.561719 -0.67145,-4.336379 -0.77252,-2.608346 -0.24423,-1.333378 -1.6189,-3.810622 -0.17525,-0.315817 -0.31268,-0.65581 -0.52575,-0.947452 -0.29647,-0.405785 -1.12043,-1.028066 -1.51484,-1.38996 -0.50495,-0.463319 -0.91259,-1.06294 -1.51484,-1.389959 -0.44888,-0.243745 -1.02432,-0.177949 -1.47321,-0.421695 -4.61917,-2.508231 3.43471,0.824435 -2.5039,-1.832467 -0.29489,-0.131931 -0.66345,0.148611 -0.96827,0.04163 -0.68161,-0.239227 -1.31877,-0.59001 -1.97815,-0.885015 -0.32969,-0.147502 -0.63524,-0.370037 -0.98908,-0.442507 -0.31649,-0.06482 -0.64552,0.02775 -0.96827,0.04162 -1.10783,0.04763 -1.24388,0.155726 -2.44147,-0.38007 -0.41703,-0.186578 -0.57067,-0.800914 -1.00989,-0.92664 -0.44197,-0.126508 -1.01043,0.188946 -1.4524,0.06244 -0.34723,-0.0994 -0.64183,-0.343113 -0.98907,-0.442508 -0.15529,-0.04445 -0.34602,0.104558 -0.48413,0.02081 -0.39068,-0.236862 -0.63297,-0.66847 -1.00989,-0.926639 -0.298,-0.2041 -0.68024,-0.25525 -0.98908,-0.442507 -0.16313,-0.0989 -0.93622,-0.915172 -1.00989,-0.92664 -0.63842,-0.09938 -1.29102,0.0555 -1.93654,0.08325 z"
         id="path7" />
    </g>
    <path
       style="fill:none;stroke:#3fbf3f;stroke-width:1;stroke-linecap:round;stroke-linejoin:round"
       d="m 76.337854,363.40596 c -0.181506,0.34566 -0.62399,-0.0693 -0.87074,0.0862 -0.09971,0.0628 -0.129557,0.20313 -0.224148,0.27341 -0.105759,0.0786 -0.249378,0.0911 -0.360866,0.16131 -0.04985,0.0313 -0.06864,0.0969 -0.112072,0.13671 -0.11072,0.10151 -0.221443,0.20564 -0.348538,0.28574 -0.222936,0.14053 -0.490901,0.19554 -0.721712,0.3227 -0.163205,0.0899 -0.309725,0.20813 -0.472931,0.29805 -0.115405,0.0636 -0.242645,0.10312 -0.360844,0.1614 -0.201305,0.0991 -0.392484,0.21878 -0.597322,0.31037 -0.156842,0.0701 -0.326368,0.10828 -0.485243,0.17369 -1.220984,0.50212 -0.266026,0.10909 -1.194643,0.62074 -0.230809,0.12716 -0.487871,0.2012 -0.721712,0.3227 -0.412672,0.21443 -0.09748,0.0555 -0.348539,0.28573 -0.11072,0.10151 -0.22796,0.19613 -0.348538,0.28574 -0.149554,0.11118 -0.328827,0.17992 -0.472929,0.29806 -0.04558,0.0373 -0.05979,0.10955 -0.112073,0.13671 -0.152447,0.0792 -0.347453,0.0708 -0.485244,0.17368 C 68.02498,367.7944 68.05907,367.92796 68,368 c -0.05905,0.0721 -0.164423,0.0899 -0.236467,0.14902 -0.04558,0.0373 -0.06651,0.0993 -0.112074,0.13671 -0.07204,0.0591 -0.161684,0.0935 -0.236466,0.14902 -0.120574,0.0896 -0.22796,0.19613 -0.348539,0.28574 -0.230812,0.17154 -0.378451,0.18286 -0.585002,0.43476 -0.06865,0.0838 -0.07366,0.33604 -0.211827,0.39782 -0.07608,0.034 -0.178282,-0.0198 -0.248776,0.0247 -0.140321,0.0885 -0.402653,0.5389 -0.560367,0.68354 -0.110721,0.10151 -0.221441,0.20565 -0.348539,0.28574 -0.03525,0.0222 -0.09799,-0.02 -0.124399,0.0123 -0.02642,0.0322 0.03188,0.0875 0.01232,0.12439 -0.211828,0.39781 -0.174277,0.14283 -0.336221,0.41013 -0.07786,0.12848 -0.129994,0.27183 -0.211827,0.39781 -0.136995,0.21092 -0.297683,0.2697 -0.323903,0.53452 -0.01259,0.12713 0.05787,0.58437 0.07391,0.74636 0.03285,0.3317 0.01642,0.16585 0.04927,0.49756 0.0082,0.0829 0.01642,0.16586 0.02463,0.24878 0.0041,0.0414 -0.0017,0.0852 0.01232,0.12439 0.0444,0.12406 0.107559,0.24058 0.161343,0.36086 0.05379,0.12029 0.09109,0.24939 0.161341,0.36086 0.0801,0.12709 0.184196,0.23783 0.285738,0.34853 0.07966,0.0869 0.210586,0.12445 0.273421,0.22416 0.02222,0.0353 -0.0099,0.0891 0.01231,0.12438 0.341024,0.54111 -0.103828,-0.52274 0.285741,0.34855 0.03206,0.0717 0.06197,0.62582 0.07391,0.74634 0.04927,0.49757 0.09855,0.99514 0.14782,1.4927 0.0081,0.0817 0.0534,0.30069 0.03696,0.37318 -0.02061,0.0908 -0.08618,0.16892 -0.09975,0.2611 -0.01214,0.0824 0.01642,0.16585 0.02463,0.24878 0.01232,0.12439 0.02464,0.24878 0.03696,0.37318 0.04927,0.49756 0.09855,0.99513 0.147818,1.49269 0.0082,0.0829 0.01642,0.16586 0.02464,0.24879 0.0041,0.0415 -0.0099,0.0891 0.01231,0.12439 0.03142,0.0499 0.112668,0.0583 0.13671,0.11207 0.034,0.0761 0.01642,0.16586 0.02463,0.24878 0.02053,0.20732 0.06408,0.41364 0.0616,0.62196 -0.0021,0.17179 -0.06372,0.33847 -0.07512,0.50989 -4.5e-5,6.6e-4 0.03927,0.48177 0.04927,0.49756 0.08132,0.12904 0.283164,0.15762 0.397812,0.21183 0.271625,0.12845 0.514946,0.31642 0.795623,0.42366 0.209606,0.0801 0.43699,0.10711 0.646595,0.18719 0.140337,0.0536 0.260665,0.15052 0.39781,0.21182 0.170107,0.076 0.357729,0.11194 0.522204,0.19952 0.10403,0.0554 0.163329,0.18209 0.273419,0.22414 0.07785,0.0298 0.166345,-0.0367 0.248777,-0.0247 0.260703,0.0384 0.512705,0.12257 0.770985,0.17487 0.297305,0.0602 0.595847,0.11464 0.895378,0.16256 2.518484,0.40286 0.565786,-0.0159 3.208336,0.68717 0.344029,0.0916 0.853912,0.16666 1.156478,0.26231 0.05619,0.0178 0.08167,0.0911 0.13671,0.11207 0.07785,0.0298 0.184348,-0.0774 0.248776,-0.0247 0.03223,0.0265 -0.0199,0.098 0.01232,0.12439 0.03223,0.0265 0.09218,-0.0387 0.124399,-0.0123 0.03223,0.0265 -0.01989,0.098 0.01232,0.12439 0.07205,0.0591 0.178857,0.0559 0.261102,0.0998 0.05201,0.0277 0.09112,0.0747 0.136709,0.11207 0.08704,0.0333 0.178858,0.0559 0.261102,0.0998 0.104031,0.0554 0.158488,0.19807 0.27342,0.22414 0.08128,0.0184 0.170922,-0.0545 0.248776,-0.0247 0.03892,0.0148 -0.0099,0.0891 0.01232,0.12439 0.03142,0.0499 0.09112,0.0746 0.136709,0.11207 0.04558,0.0374 0.08469,0.0844 0.13671,0.11207 0.08225,0.0439 0.189035,0.0406 0.261102,0.0998 0.116185,0.0952 0.169556,0.25329 0.285738,0.34854 0.07205,0.0591 0.178857,0.0559 0.261099,0.0997 0.05201,0.0277 0.09112,0.0747 0.13671,0.11207 0.136712,0.11208 0.315878,0.18667 0.410131,0.33622 0.06665,0.10575 0.02464,0.24878 0.03696,0.37317 0.02464,0.24879 0.04927,0.49757 0.07391,0.74636 0.02464,0.24878 0.04927,0.49757 0.07391,0.74635 0.01642,0.16585 0.06034,0.33126 0.04927,0.49756 -0.0062,0.0929 -0.08618,0.16893 -0.09976,0.2611 -0.01945,0.13206 0.03515,0.35494 0.04927,0.49757 0.04107,0.41464 0.08212,0.82927 0.123183,1.24391 0.09855,0.99514 0.197094,1.99027 0.295641,2.9854 0.02464,0.24878 0.04927,0.49757 0.07391,0.74635 -0.04138,0.005 -0.109519,-0.0266 -0.1244,0.0123 -0.03006,0.0788 0.09511,0.58107 0.06159,0.62196 -0.02642,0.0323 -0.08291,0.008 -0.124399,0.0123 -0.178543,0.0177 -0.612184,0.0937 -0.746352,0.0739 -0.221993,-0.0327 -0.427771,-0.13756 -0.646593,-0.18719 -0.295823,-0.0671 -0.609194,-0.062 -0.895379,-0.16256 -0.689988,-0.24246 -2.55621,-1.4202 -2.921389,-1.59487 -0.807049,-0.38603 -1.661526,-0.66408 -2.486623,-1.00987 -0.791293,-0.33161 -1.567314,-0.69935 -2.36223,-1.02218 -6.772384,-2.7504 1.484149,0.788 -5.109956,-2.13181 -0.477376,-0.21137 -0.978076,-0.3718 -1.442216,-0.61084 -0.143636,-0.074 -1.700644,-1.17583 -1.752592,-1.20817 -0.255048,-0.15883 -0.536395,-0.27174 -0.795623,-0.42366 -1.14183,-0.66916 -0.223781,-0.17425 -1.218071,-0.88427 -1.547794,-1.10527 0.385995,0.27738 -1.044405,-0.39901 -0.08422,-0.0398 -0.07698,-0.17741 -0.149028,-0.23647 -0.07205,-0.0591 -0.178857,-0.0559 -0.261102,-0.0998 -0.05201,-0.0277 -0.08168,-0.0911 -0.13671,-0.11207 -0.03892,-0.0149 -0.08762,0.0318 -0.124399,0.0123 -0.104027,-0.0554 -0.188277,-0.14265 -0.273419,-0.22414 -0.516834,-0.49464 -0.541108,-0.54404 -0.857214,-1.04561 -0.09935,-0.15765 -0.198703,-0.31528 -0.298056,-0.47293 -0.04967,-0.0788 -0.08996,-0.16441 -0.149028,-0.23647 -0.03735,-0.0455 -0.116845,-0.0565 -0.13671,-0.11207 -0.04212,-0.1177 -0.0072,-0.25178 -0.03695,-0.37317 -0.04094,-0.16685 -0.144598,-0.31593 -0.173666,-0.48526 -0.328091,-1.91115 -0.0414,-0.57571 -0.0727,-2.00258 -0.0064,-0.2916 -0.09882,-0.57933 -0.08623,-0.87074 1.24e-4,-0.004 0.322833,-1.7753 0.325109,-1.79076 0.05599,-0.38004 0.09194,-0.76277 0.13792,-1.14415 0.08333,-0.42697 0.181278,-0.85133 0.249991,-1.28087 0.04597,-0.38139 0.09195,-0.76277 0.137918,-1.14416 0.06239,-0.21553 0.149773,-0.42535 0.187191,-0.6466 0.04227,-0.2499 0.01354,-0.50793 0.05048,-0.75867 0.03841,-0.2607 0.136466,-0.51026 0.174875,-0.77098 0.03694,-0.25075 0.03365,-0.50578 0.05048,-0.75867 0.05829,-0.257 0.130927,-0.51115 0.174872,-0.77099 0.03543,-0.20947 0.0158,-0.42707 0.0628,-0.63427 0.04122,-0.18173 0.158292,-0.34048 0.19951,-0.5222 0.047,-0.20721 0.02737,-0.4248 0.0628,-0.63428 0.121987,-0.72127 0.229433,-0.71587 0.237672,-1.40526 0.002,-0.16666 -0.03285,-0.33171 -0.04927,-0.49757 -0.03285,-0.33171 -0.0657,-0.66342 -0.09855,-0.99513 -0.02874,-0.29025 -0.05749,-0.58049 -0.08623,-0.87074 -0.02874,-0.29025 -0.03132,-0.5843 -0.08623,-0.87074 -0.03238,-0.16872 -0.135658,-0.31771 -0.173667,-0.48526 -0.03689,-0.16252 -0.01464,-0.33453 -0.04927,-0.49756 -0.04417,-0.20781 -0.141828,-0.40182 -0.185978,-0.60964 -0.05192,-0.24455 -0.01434,-0.50355 -0.07391,-0.74635 -0.0506,-0.20634 -0.127562,-0.40537 -0.185978,-0.60964 -0.06969,-0.24368 -0.13791,-0.48788 -0.198302,-0.73403 -0.02851,-0.11604 -0.02516,-0.25412 -0.03696,-0.37317 -0.02053,-0.20732 -0.04106,-0.41465 -0.06159,-0.62196 -0.0062,-0.0622 -0.08007,-0.80854 -0.08623,-0.87074 -0.0082,-0.0829 -0.03284,-0.16586 -0.02464,-0.24879 0.01298,-0.13112 0.0639,-0.25585 0.08744,-0.38549 0.03069,-0.16904 0.04221,-0.34127 0.07512,-0.50989 0.331647,-1.69924 -8.77e-4,0.003 0.374384,-1.29318 0.01158,-0.0401 -0.04757,-0.10218 -0.01231,-0.12439 0.374624,-0.2361 0.141254,0.24596 0.485244,-0.17369 0.05905,-0.0721 0.04068,-0.18905 0.09975,-0.2611 0.09525,-0.11618 0.229609,-0.19395 0.348539,-0.28574 0.192334,-0.14845 0.397115,-0.28073 0.585002,-0.43476 0.528642,-0.43339 0.975229,-0.95875 1.493907,-1.40406 0.227972,-0.19571 0.487951,-0.35573 0.697076,-0.57148 0.287092,-0.29617 0.511382,-0.64787 0.784513,-0.95697 0.254371,-0.28785 0.527393,-0.55876 0.796831,-0.83257 0.187129,-0.19017 0.403539,-0.35284 0.572684,-0.55916 1.485991,-1.81266 -0.715495,0.52272 0.996342,-1.35478 0.179755,-0.19715 0.403539,-0.35284 0.572683,-0.55916 1.251291,-1.52636 -0.646321,0.32235 1.220487,-1.6282 0.247831,-0.25894 0.541462,-0.46982 0.809151,-0.70818 0.155585,-0.13857 0.32853,-0.26134 0.46061,-0.42246 0.09524,-0.11617 0.116583,-0.28163 0.211828,-0.3978 0.09525,-0.11618 0.241048,-0.18078 0.348539,-0.28574 0.08433,-0.0823 0.137291,-0.19377 0.224146,-0.27342 0.137316,-0.126 0.328826,-0.17993 0.47293,-0.29805 0.09114,-0.0748 0.124445,-0.21058 0.224146,-0.27343 0.111465,-0.0703 0.245462,-0.0977 0.360866,-0.1613 0.163204,-0.0899 0.30575,-0.21576 0.472929,-0.29806 0.154123,-0.0759 0.324772,-0.11232 0.485243,-0.17369 1.58897,-0.6071 0.174009,-0.11072 1.455743,-0.52099 0.365869,-0.11709 0.723184,-0.26267 1.094889,-0.35965 0.90362,-0.23586 1.802717,-0.30413 2.724295,-0.39539 0.290259,-0.0287 0.580493,-0.0575 0.870741,-0.0862 0.165859,-0.0164 0.332093,-0.0693 0.497576,-0.0492 0.222774,0.0269 0.425354,0.14977 0.646595,0.18719 0.24989,0.0422 0.507036,0.0201 0.758667,0.0505 0.130818,0.0158 0.256992,0.0583 0.385492,0.0874 0.128499,0.0292 0.258933,0.0508 0.385493,0.0874 0.08951,0.0259 0.170238,0.0791 0.261102,0.0998 0.73617,0.16697 0.339252,-0.0499 1.156479,0.26231 0.405528,0.15492 1.467872,0.86046 1.740273,1.08377 0.206328,0.16915 0.35283,0.40354 0.559159,0.57269 0.161112,0.13207 0.362111,0.20695 0.534521,0.3239 0.291671,0.19785 0.253115,0.19193 0.422447,0.46061 0.04968,0.0788 0.08605,0.1678 0.14903,0.23647 0.07966,0.0869 0.20515,0.12808 0.273418,0.22414 0.345563,0.48625 0.233801,0.52637 0.471722,0.95817 0.08992,0.16321 0.221997,0.30283 0.298056,0.47294 0.208385,0.46606 0.388361,1.66554 0.445874,1.96563 0.141944,0.74062 0.392326,1.82562 0.383076,2.5999 -0.0041,0.34357 -0.104884,0.67918 -0.150235,1.01977 -0.05071,0.38079 -0.100069,0.76188 -0.137918,1.14417 -0.04995,0.50441 -0.02708,1.01584 -0.100966,1.51732 -0.0384,0.26072 -0.130926,0.51115 -0.174871,0.77099 -0.03543,0.20948 0.0039,0.43257 -0.0628,0.63428 -0.06544,0.19779 -0.249548,0.3399 -0.3239,0.53452 -0.06132,0.16048 -0.03711,0.34235 -0.07512,0.50988 -0.06215,0.27403 -0.141452,0.31198 -0.3239,0.53453 -0.149431,0.18228 -0.319907,0.34917 -0.448294,0.54683 -0.08183,0.12599 -0.106457,0.29073 -0.211828,0.39781 -0.13071,0.13277 -0.32337,0.18692 -0.472929,0.29806 -0.04729,0.0352 -0.06651,0.0993 -0.112074,0.13671 -0.07204,0.0591 -0.177408,0.0769 -0.236467,0.14902 -0.05906,0.0721 -0.04068,0.18905 -0.09976,0.2611 -0.05905,0.0721 -0.167796,0.0861 -0.236467,0.14902 -0.130272,0.11952 -0.199512,0.29805 -0.336219,0.41013 -0.356034,0.29188 -0.116866,0.007 -0.472929,0.29806 -0.09113,0.0748 -0.133007,0.19871 -0.224147,0.27342 -0.07204,0.0591 -0.164424,0.0899 -0.236468,0.14902 -0.09113,0.0748 -0.124443,0.21058 -0.224147,0.27341 -0.03525,0.0222 -0.08636,-0.005 -0.1244,0.0123 -0.08507,0.038 -0.148735,0.11767 -0.236466,0.14902 -0.07834,0.0285 -0.172699,-0.009 -0.248777,0.0247 -0.05378,0.024 -0.0747,0.0912 -0.112073,0.13671 -0.07882,0.0497 -0.151406,0.111 -0.236468,0.14902 -0.07216,0.0322 -0.522687,0.0518 -0.621952,0.0616 -0.207317,0.0205 -0.414635,0.0411 -0.621953,0.0616 -0.124399,0.0123 -0.259053,-0.014 -0.373176,0.0369 -0.05379,0.024 -0.0622,0.10539 -0.112072,0.13672 -0.03598,0.0227 -0.317161,0.0314 -0.373176,0.0369 -0.08291,0.008 -0.165858,0.0164 -0.248777,0.0247 -0.08291,0.008 -0.21477,0.10073 -0.248775,0.0247 -0.05379,-0.12029 0.05829,-0.257 0.08744,-0.38549 z"
       id="path52"
       inkscape:transform-center-x="5.1264455"
       inkscape:transform-center-y="16.492187" />
    <g
       id="g57"
       inkscape:transform-center-x="5.1275167"
       inkscape:transform-center-y="19.499154"
       transform="translate(0,-4)">
      <path
         style="fill:none;stroke:#3fbf3f;stroke-width:1;stroke-linecap:round;stroke-linejoin:round"
         d="m 28.375,346.74897 c 0.166667,-0.24966 0.253991,-0.57697 0.5,-0.74897 0.207714,-0.14523 0.498876,-0.0908 0.75,-0.125 0.665694,-0.0908 1.332254,-0.17581 2,-0.25 1.294755,-0.14386 1.045023,-0.125 2,-0.125 0.318451,0 0.557619,-0.0193 0.875,0.125 1.313155,0.59689 0.551529,0.44079 1.875,1.375 0.350467,0.24739 0.774533,0.37761 1.125,0.625 0.361854,0.25543 0.661879,0.5889 1,0.875 0.203669,0.17234 0.418511,0.33105 0.625,0.5 1.750758,1.43244 -0.156541,-0.10023 1.375,1.125 0.279863,0.22389 1.759247,1.38425 2.125,1.75 0.554591,0.55459 0.861685,1.27588 1.125,2 0.09006,0.24766 0.20286,0.49073 0.25,0.75 0.03727,0.20497 -0.02301,0.41794 0,0.625 0.01897,0.17075 0.106028,0.32926 0.125,0.5 0.02301,0.20706 0,0.41667 0,0.625 0,0.16667 0.03616,0.3373 0,0.5 -0.04868,0.21904 -0.179044,0.41213 -0.25,0.625 -0.09592,0.28777 -0.122884,0.59958 -0.25,0.875 -0.125911,0.27281 -0.357551,0.48545 -0.5,0.75 -0.150443,0.2794 -0.233088,0.59118 -0.375,0.875 -0.283847,0.56769 -0.7532,1.14166 -1.125,1.625 -0.162669,0.21147 -0.339922,0.41156 -0.5,0.625 -0.09014,0.12019 -0.14377,0.26877 -0.25,0.375 -0.4645,0.4645 -0.589422,0.33344 -1.125,0.75 -0.186052,0.14471 -0.311438,0.35858 -0.5,0.5 -0.329972,0.24748 -0.773396,0.30467 -1.125,0.5 -0.182116,0.10118 -0.313661,0.28183 -0.5,0.375 -0.01283,0.006 -0.974669,0.2405 -1,0.25 -0.174475,0.0654 -0.325525,0.18457 -0.5,0.25 -0.160858,0.0603 -0.33702,0.0707 -0.5,0.125 -0.212867,0.071 -0.410081,0.18552 -0.625,0.25 -0.203499,0.0611 -0.421936,0.0625 -0.625,0.125 -0.340257,0.1047 -0.656544,0.28133 -1,0.375 -0.120595,0.0329 -0.252427,-0.0245 -0.375,0 -0.09136,0.0183 -0.166667,0.0833 -0.25,0.125 -0.208333,0.0417 -0.413595,0.10386 -0.625,0.125 -0.207299,0.0207 -0.419501,-0.0342 -0.625,0 -0.299211,0.0499 -0.580719,0.17643 -0.875,0.25 -1.381269,0.34532 0.05252,-0.0222 -1.125,0.125 -1.242094,0.15526 0.331301,0.11761 -1.125,0.25 -0.456451,0.0415 -0.918941,-0.0456 -1.375,0 -0.211405,0.0211 -0.41384,0.10154 -0.625,0.125 -0.165647,0.0184 -0.337302,-0.0362 -0.5,0 -0.219039,0.0487 -0.407318,0.19558 -0.625,0.25 -2.832589,0.70815 0.453125,-0.27232 -1.375,0.25 -0.126692,0.0362 -0.257149,0.0661 -0.375,0.125 -0.134371,0.0672 -0.244563,0.17546 -0.375,0.25 -1.709072,0.97661 0.792521,-0.57001 -1,0.625 -0.07752,0.0517 -0.184119,0.0591 -0.25,0.125 -0.06588,0.0659 -0.05912,0.18412 -0.125,0.25 -0.3036,0.3036 -0.183553,-0.0372 -0.375,0.25 -0.218443,0.32767 -0.04672,0.21844 -0.25,0.625 -0.06718,0.13437 -0.194205,0.23551 -0.25,0.375 -0.112657,0.28164 -0.162836,0.58446 -0.25,0.875 -0.09714,0.32379 -0.200207,0.52645 -0.25,0.875 -0.02357,0.16499 0,0.33333 0,0.5 0,0.45833 0,0.91667 0,1.375 0,1.20833 0,2.41667 0,3.625 0,0.41667 0,0.83333 0,1.25 0,0.20833 0.04086,0.42071 0,0.625 -0.01827,0.0914 -0.09554,0.16161 -0.125,0.25 -0.03492,0.10477 0.04142,0.41716 0,0.5 -0.02635,0.0527 -0.09865,0.0723 -0.125,0.125 -0.02254,0.0451 0.01199,0.45802 0,0.5 -0.06164,0.21575 -0.149653,0.42431 -0.25,0.625 -0.0527,0.10541 -0.212732,0.1382 -0.25,0.25 -0.02635,0.0791 0.02021,0.16916 0,0.25 0.09285,0.23134 -0.213564,0.22925 -0.25,0.375 -0.03032,0.12127 0.03434,0.25481 0,0.375 -0.05119,0.17917 -0.209577,0.3181 -0.25,0.5 -0.04519,0.20337 0.05723,0.42468 0,0.625 -0.03238,0.11332 -0.197295,0.14459 -0.25,0.25 -0.03727,0.0745 0.02635,0.17094 0,0.25 -0.01863,0.0559 -0.106366,0.0691 -0.125,0.125 -0.02635,0.0791 0,0.16667 0,0.25 0,0.0417 0.01863,0.0877 0,0.125 -0.26011,0.52022 0.0086,-0.13363 -0.25,0.125 -0.02946,0.0295 0.03727,0.10637 0,0.125 -0.235702,0.11785 -0.501829,0.16137 -0.75,0.25 -0.33526,0.11974 -0.676373,0.22667 -1,0.375 -0.677577,0.31056 -1.351121,0.63324 -2,1 -0.0031,0.002 -1.740272,1.24352 -1.75,1.25 -0.202152,0.13477 -0.399421,0.28477 -0.625,0.375 -0.197263,0.0789 -0.429719,0.0413 -0.625,0.125 -0.02861,0.0123 -0.389227,0.48577 -0.5,0.375 -0.02946,-0.0295 0.01318,-0.0855 0,-0.125 -0.33319,-0.99957 0.139814,0.9392 -0.25,-0.75 -0.08638,-0.37431 -0.166667,-0.75 -0.25,-1.125 -0.125,-0.45833 -0.264963,-0.91285 -0.375,-1.375 -0.223294,-0.93783 -0.314967,-1.53947 -0.375,-2.5 -0.031189,-0.49903 0,-1 0,-1.5 0,-0.75 0,-1.5 0,-2.25 0,-0.29167 -0.026406,-0.58453 0,-0.875 0.03111,-0.34218 0.212057,-0.65851 0.25,-1 0.02301,-0.20706 -0.02073,-0.4177 0,-0.625 0.02114,-0.2114 0.08333,-0.41667 0.125,-0.625 0.04167,-0.20833 0.07891,-0.4176 0.125,-0.625 0.03727,-0.1677 0.106028,-0.32925 0.125,-0.5 0.02301,-0.20706 -0.02301,-0.41794 0,-0.625 0.01897,-0.17074 0.09131,-0.33154 0.125,-0.5 0.271373,-1.35687 -0.01813,-0.16843 0.25,-1.375 0.396793,-1.78557 -0.2482,1.2428 0.375,-1.25 0.06147,-0.24588 0.05831,-0.50548 0.125,-0.75 0.05904,-0.21647 0.205995,-0.40497 0.25,-0.625 0.04086,-0.20429 0,-0.41667 0,-0.625 0,-0.0417 -0.01318,-0.0855 0,-0.125 0.02946,-0.0884 0.106728,-0.15864 0.125,-0.25 0.02451,-0.12257 0,-0.25 0,-0.375 0,-0.29167 0,-0.58333 0,-0.875 0,-0.20985 0.0287,-0.87084 0,-1 -0.04867,-0.21904 -0.149653,-0.42431 -0.25,-0.625 -0.02635,-0.0527 -0.08333,-0.0833 -0.125,-0.125 -0.133447,-0.13345 -0.189459,-0.16311 -0.25,-0.375 -0.198143,-0.6935 -0.04157,-0.49971 -0.25,-1.125 -0.335489,-1.00647 -0.193586,-0.25148 -0.5,-1.375 -0.0559,-0.20497 -0.10386,-0.41359 -0.125,-0.625 -0.02073,-0.2073 0,-0.41667 0,-0.625 0,-0.16667 0,-0.33333 0,-0.5 0,-0.73406 -0.06165,-1.19062 0.125,-1.875 0.05904,-0.21647 0.174532,-0.41369 0.25,-0.625 0.132949,-0.37226 0.198223,-0.77145 0.375,-1.125 0.119315,-0.23863 0.365569,-0.39455 0.5,-0.625 0.15989,-0.2741 0.224557,-0.5956 0.375,-0.875 0.142449,-0.26455 0.333333,-0.5 0.5,-0.75 0.166667,-0.25 0.309736,-0.51745 0.5,-0.75 0.186569,-0.22803 0.416667,-0.41667 0.625,-0.625 0.125,-0.125 0.239196,-0.26183 0.375,-0.375 0.115411,-0.0962 0.252752,-0.16268 0.375,-0.25 0.169528,-0.12109 0.333333,-0.25 0.5,-0.375 0.694365,-0.52077 0.321356,-0.26781 1.125,-0.75 0.208333,-0.125 0.396671,-0.29197 0.625,-0.375 0.238189,-0.0866 0.503042,-0.068 0.75,-0.125 0.29557,-0.0682 0.580719,-0.17643 0.875,-0.25 0.372678,-0.0932 0.762419,-0.1231 1.125,-0.25 0.475195,-0.16632 0.913751,-0.4232 1.375,-0.625 0.205569,-0.0899 0.414905,-0.17121 0.625,-0.25 0.123372,-0.0463 0.257149,-0.0661 0.375,-0.125 0.0527,-0.0263 0.07597,-0.0923 0.125,-0.125 0.07752,-0.0517 0.172478,-0.0733 0.25,-0.125 0.04903,-0.0327 0.0691,-0.10637 0.125,-0.125 0.07906,-0.0263 0.175464,0.0373 0.25,0 0.123004,-0.0615 0.376996,-0.4385 0.5,-0.5 0.117851,-0.0589 0.257149,-0.0661 0.375,-0.125 0.0527,-0.0263 0.07029,-0.10312 0.125,-0.125 0.159509,-0.0638 0.342095,-0.0573 0.5,-0.125 0.138084,-0.0592 0.236916,-0.19082 0.375,-0.25 0.157906,-0.0677 0.346341,-0.0482 0.5,-0.125 0.125,-0.0625 0.25,-0.28125 0.375,-0.375 0.120185,-0.0901 0.254815,-0.15986 0.375,-0.25 0.09428,-0.0707 0.166667,-0.16667 0.25,-0.25 0.04167,-0.0417 0.09231,-0.076 0.125,-0.125 0.05168,-0.0775 0.05912,-0.18412 0.125,-0.25 0.02946,-0.0295 0.08773,0.0186 0.125,0 0.0527,-0.0263 0.0691,-0.10637 0.125,-0.125 5.67e-4,-1.9e-4 0.374881,1.2e-4 0.375,0 0.02946,-0.0295 -0.03727,-0.10637 0,-0.125 0.07454,-0.0373 0.170943,0.0263 0.25,0 0.111803,-0.0373 0.144591,-0.19729 0.25,-0.25 0.03727,-0.0186 0.125,0.0417 0.125,0 0,-0.0417 -0.125,-0.0417 -0.125,0 0,0.0589 0.106366,0.0691 0.125,0.125 0.02635,0.0791 0,0.33333 0,0.25 0,-0.12534 0,-0.25069 0,-0.37603"
         id="path56" />
      <path
         style="fill:none;stroke:#3fbf3f;stroke-width:1;stroke-linecap:round;stroke-linejoin:round"
         d="m 16,384 c 0.04167,-0.0833 0.05046,-0.3059 0.125,-0.25 0.194365,0.14577 0.216886,0.44053 0.375,0.625 0.09777,0.11406 0.26877,0.14377 0.375,0.25 0.117193,0.11719 0.208682,0.38912 0.375,0.5 0.07752,0.0517 0.172478,0.0733 0.25,0.125 0.527371,0.35158 -0.679044,-0.21452 0.5,0.375 0.03727,0.0186 0.09554,-0.0295 0.125,0 0.06588,0.0659 0.04748,0.19832 0.125,0.25 0.186697,0.12447 0.419957,0.15887 0.625,0.25 0.170279,0.0757 0.325525,0.18457 0.5,0.25 0.160858,0.0603 0.33702,0.0707 0.5,0.125 0.745563,0.24852 0.557895,0.29572 1.375,0.5 0.245881,0.0615 0.504119,0.0635 0.75,0.125 0.422024,0.10551 0.822438,0.29483 1.25,0.375 0.245718,0.0461 0.501241,-0.0249 0.75,0 0.170944,0.0171 0.333333,0.0833 0.5,0.125 0.166667,0.0417 0.33702,0.0707 0.5,0.125 0.362708,0.1209 0.14617,0.0784 0.375,0.25 0.120185,0.0901 0.247604,0.17038 0.375,0.25 1.815847,1.08951 -0.437321,-0.29155 1.125,0.75 0.202152,0.13477 0.442157,0.21501 0.625,0.375 0.156787,0.13719 0.216822,0.36442 0.375,0.5 0.686277,0.58824 0.303109,-0.0719 0.875,0.5 0.188654,0.18865 0.311346,0.43635 0.5,0.625 0.147314,0.14731 0.352686,0.22769 0.5,0.375 0.66729,0.66729 0.06967,0.33074 0.75,0.875 0.07275,0.0582 0.172478,0.0733 0.25,0.125 0.247632,-0.0125 0.05912,0.18412 0.125,0.25 0.02946,0.0295 0.08773,-0.0186 0.125,0 0.143302,0.0716 0.173876,0.26081 0.25,0.375 0.06537,0.0981 0.212732,0.1382 0.25,0.25 0.02635,0.0791 -0.02635,0.17094 0,0.25 0.01863,0.0559 0.106366,0.0691 0.125,0.125 0.02635,0.0791 0,0.16667 0,0.25 0,0.0417 -0.01863,0.0877 0,0.125 0.296977,0.59395 -0.05232,-0.74123 0.125,0.5 0.267283,1.87098 -0.05714,-0.94462 0.375,1 0.04519,0.20337 -0.02301,0.41794 0,0.625 0.01897,0.17075 0.09676,0.33054 0.125,0.5 0.02322,0.13933 -0.03457,0.36173 0,0.5 0.03196,0.12783 0.110449,0.24404 0.125,0.375 0.02761,0.24847 0,0.5 0,0.75 0,0.5 0,1 0,1.5 0,0.54167 0,1.08333 0,1.625 0,0.25 0.0411,0.5034 0,0.75 -0.0097,0.0581 -0.106366,0.0691 -0.125,0.125 -0.02635,0.0791 0.04622,0.18066 0,0.25 -0.05168,0.0775 -0.198319,0.0475 -0.25,0.125 -0.04622,0.0693 0.03727,0.17547 0,0.25 -0.01863,0.0373 -0.101887,-0.0347 -0.125,0 -0.04167,0.125 -0.08333,0.25 -0.125,0.375 -0.04167,0 -0.09554,-0.0295 -0.125,0 -0.252905,0.25291 -0.03627,0.35882 -0.125,0.625 -0.04786,0.14359 -0.298428,0.17343 -0.375,0.25 -0.02946,0.0295 0.01318,0.0855 0,0.125 -0.02946,0.0884 -0.07332,0.17248 -0.125,0.25 -0.06537,0.0981 -0.166667,0.16667 -0.25,0.25 -0.08333,0.0833 -0.144591,0.1973 -0.25,0.25 -0.07454,0.0373 -0.25,-0.0833 -0.25,0 0,0.0833 0.330845,0.0202 0.25,0 -0.245881,-0.0615 -0.50685,-0.0535 -0.75,-0.125 -2.225964,-0.65469 -0.582871,-0.23056 -2.25,-1 -0.239268,-0.11043 -0.510732,-0.13957 -0.75,-0.25 -0.305008,-0.14077 -0.578111,-0.34282 -0.875,-0.5 -0.83528,-0.44221 -1.361257,-0.63402 -2.125,-1.125 -0.763028,-0.49052 -1.057888,-0.77517 -1.75,-1.375 -1.064608,-0.92266 -0.858411,-0.76481 -1.875,-1.625 -0.496853,-0.42041 -0.991768,-0.84341 -1.5,-1.25 -0.162681,-0.13014 -0.345846,-0.23486 -0.5,-0.375 -0.30521,-0.27746 -0.583333,-0.58333 -0.875,-0.875 -0.5,-0.5 -1,-1 -1.5,-1.5 -0.25,-0.25 -0.5,-0.5 -0.75,-0.75 -0.08333,-0.0833 -0.166667,-0.16667 -0.25,-0.25 -0.08333,-0.0833 -0.179289,-0.15572 -0.25,-0.25 -0.0559,-0.0745 -0.06535,-0.17842 -0.125,-0.25 -0.150893,-0.18107 -0.363001,-0.3082 -0.5,-0.5 -0.07658,-0.10722 -0.06607,-0.25715 -0.125,-0.375 -0.108653,-0.21731 -0.274464,-0.40382 -0.375,-0.625 -0.109047,-0.2399 -0.177605,-0.49662 -0.25,-0.75 -0.01145,-0.0401 0.01863,-0.0877 0,-0.125 -0.06719,-0.13437 -0.182814,-0.24063 -0.25,-0.375 -0.05893,-0.11785 -0.0731,-0.25389 -0.125,-0.375 -0.0734,-0.17127 -0.176597,-0.32873 -0.25,-0.5 -0.0519,-0.12111 -0.06607,-0.25715 -0.125,-0.375 -0.02635,-0.0527 -0.09231,-0.076 -0.125,-0.125 -0.05168,-0.0775 -0.07332,-0.17248 -0.125,-0.25 C 12.09231,389.076 12.03535,389.0471 12,389 c -0.09014,-0.12018 -0.159861,-0.25481 -0.25,-0.375 -0.03535,-0.0471 -0.106366,-0.0691 -0.125,-0.125 -0.02635,-0.0791 0.02021,-0.16915 0,-0.25 -0.0226,-0.0904 -0.102403,-0.15961 -0.125,-0.25 -0.02021,-0.0808 0,-0.16667 0,-0.25 0,-0.125 0,-0.25 0,-0.375 0,-0.48521 -0.01034,-0.57332 0.125,-1.25 7.8e-4,-0.004 0.243151,-0.48402 0.25,-0.5 0.08839,-0.20624 0.149653,-0.42431 0.25,-0.625 0.06821,-0.13642 0.266252,-0.18475 0.375,-0.25 0.128822,-0.0773 0.254815,-0.15986 0.375,-0.25 0.04714,-0.0353 0.0723,-0.0987 0.125,-0.125 0.03727,-0.0186 0.08333,0 0.125,0 0.08333,0 0.168285,0.0163 0.25,0 0.129203,-0.0258 0.252662,-0.0761 0.375,-0.125 0.08651,-0.0346 0.157767,-0.11182 0.25,-0.125 0.297523,-0.0425 0.683256,0 1,0 0.04167,0 0.08333,0 0.125,0 0.04167,0 0.125,0.0417 0.125,0 0,-0.0417 -0.166667,0 -0.125,0 0.08333,0 0.170943,0.0263 0.25,0 0.0559,-0.0186 0.08333,-0.0833 0.125,-0.125 0.166667,0 0.333333,0 0.5,0 z"
         id="path57" />
    </g>
    <text
       style="font-size:20px;line-height:1.25;font-family:sans-serif;letter-spacing:0px;word-spacing:0px;fill:#3fbf3f"
       x="143.66002"
       y="77.72171"
       id="text24"><tspan
         sodipodi:role="line"
         id="tspan24"
         x="143.66002"
         y="77.72171">arm length 100</tspan></text>
    <text
       style="font-size:20px;line-height:1.25;font-family:sans-serif;letter-spacing:0px;word-spacing:0px;fill:#3fbf3f"
       x="154.97372"
       y="198.4445"
       id="text25"><tspan
         sodipodi:role="line"
         id="tspan25"
         x="154.97372"
         y="198.4445">finger length 37</tspan></text>
    <path
       style="fill:#ffffff;stroke:#3fbf3f;stroke-width:2;stroke-linecap:round;stroke-linejoin:round"
       d="m 28,341 h 7 l 8,8 v 7 l -8,8 h -7 l -8,4 v 8 l -8,12 -4,-16 4,-19 8,-4 z"
       id="path28"
       sodipodi:nodetypes="ccccccccccccc" />
  </g>
</svg>
